<?xml version="1.0" encoding="UTF-8"?>
<svg id="Layer_2" data-name="Layer 2" xmlns="http://www.w3.org/2000/svg" viewBox="0 0 145.04 170.73">
  <defs>
    <style>
      .cls-1 {
        fill: none;
        stroke: #93d5de;
        stroke-miterlimit: 10;
        stroke-width: .8px;
      }
    </style>
  </defs>
  <polyline class="cls-1" points="32.85 41.46 35.69 44.31 45.54 33.5 35.65 13.27 22.51 5.59 32.85 41.46 29.71 51.88 30.04 58.81 17.44 49.69 14.6 40.59 6.78 47.52"/>
  <line class="cls-1" x1="90.23" y1="35.84" x2="55.67" y2="35.84"/>
  <polyline class="cls-1" points="139.11 47.52 131.29 40.59 128.45 49.69 115.86 58.81 116.18 51.88 113.64 41.08 123.23 5.65 110.25 13.27 100.35 33.5 110.21 44.31 113.64 41.08"/>
  <polyline class="cls-1" points="55.67 84.81 48.47 81.68 43.35 83.4 37.91 87.03 46.2 93.75 53.88 92.14 57.37 93.17 61.64 101.21 66.33 96.26 72.69 94.95 78.5 96.17 83.74 101.21 84.45 102.07 88.52 93.17 92.02 92.14 99.69 93.75 107.99 87.03 102.34 83.29 97.42 81.68 90.23 84.81"/>
  <polyline class="cls-1" points="67.1 137.56 75.28 140.51 83.57 137.02 102.34 122.49 105.54 128.25 99.91 133.57 101.59 142.32 95.76 134.46 99.77 147.38 93.83 136.49 97.4 152.18 87.73 141.03 92.24 157.35 82.21 144.25 88.54 160 77.33 147.33 75.29 147.48 73.2 165.51 70.6 147.48 68.57 147.33 61.74 160 63.69 144.25 53.65 157.35 58.16 141.03 48.5 152.18 52.07 136.49 46.13 147.38 50.14 134.46 44.3 142.32 45.98 133.57 40.35 128.25 43.56 122.49 67.1 137.56 70.73 133.2 70.73 130.75 65.54 125.44"/>
  <polyline class="cls-1" points="129.78 156.95 127.07 141.66 128.98 142.24 125.77 135.41 129.36 136.49 125.65 128.19 131.1 128.54 126.15 120.68 140.68 115.04 127.36 81.99 139.47 47.34 134.81 17.94 123.98 5.21 110.66 12.8 90.23 35.84 127.36 81.99 129.36 86.63 128.34 94.22 110.66 103.67 106.85 105.6 88.52 93.17 90.23 84.81 103.62 69.54 101.75 50.16 103.14 64.55 88.48 77.14 83.07 86.11 84.72 125.44 78.59 130.42 78.59 132.87 83.57 137.02"/>
  <polyline class="cls-1" points="84.72 125.44 89.04 127.05 95.66 111.25 110.66 103.67 124.71 104.24 134.58 110.43 102.34 122.49 105.54 128.25 111.61 139.14 103.59 132.27 109.84 147.84 104.76 146.4 110.36 156.95"/>
  <polyline class="cls-1" points="16.11 156.95 18.83 141.66 16.92 142.24 20.12 135.41 16.53 136.49 20.24 128.19 14.79 128.54 19.74 120.68 5.21 115.04 18.53 81.99 6.42 47.34 11.09 17.94 21.91 5.21 35.23 12.8 55.67 35.84 18.53 81.99 16.53 86.63 17.56 94.22 35.23 103.67 39.04 105.6 57.37 93.17 55.67 84.81 42.28 69.54 44.14 50.16 42.76 64.55 57.41 77.14 62.1 88.64 60.71 126.52"/>
  <polyline class="cls-1" points="84.74 125.28 81.18 119.32 76.78 117.6 73.33 117.59 68.94 119.31 65.54 125.44 60.71 126.52 50.24 111.25 35.23 103.67 21.18 104.24 11.31 110.43 43.56 122.49 40.35 128.25 34.28 139.14 42.3 132.27 36.05 147.84 41.14 146.4 35.53 156.95"/>
</svg>