<?xml version="1.0" encoding="UTF-8"?>
<svg xmlns="http://www.w3.org/2000/svg" version="1.1" xmlns:xlink="http://www.w3.org/1999/xlink" viewBox="0 0 145 170.7">
  <!-- Generator: Adobe Illustrator 29.1.0, SVG Export Plug-In . SVG Version: 2.1.0 Build 142)  -->
  <defs>
    <style>
      .st0 {
        stroke: url(#linear-gradient4);
      }

      .st0, .st1, .st2, .st3, .st4, .st5, .st6, .st7, .st8, .st9, .st10, .st11, .st12, .st13, .st14, .st15, .st16 {
        stroke-miterlimit: 10;
      }

      .st0, .st1, .st2, .st3, .st4, .st5, .st6, .st8, .st9, .st10, .st11, .st12, .st13, .st14, .st15, .st16 {
        fill: none;
      }

      .st0, .st7, .st8, .st11, .st15, .st16 {
        stroke-width: .4px;
      }

      .st1 {
        stroke: url(#linear-gradient14);
      }

      .st1, .st2, .st4, .st5, .st6, .st9, .st10, .st13 {
        stroke-width: 0px;
      }

      .st17, .st18, .st19, .st20, .st21, .st22, .st23 {
        font-family: TiroGurmukhi-Regular, 'Tiro Gurmukhi';
      }

      .st17, .st20 {
        fill: #93d5de;
      }

      .st17, .st21, .st23 {
        font-size: 10px;
      }

      .st2 {
        stroke: url(#linear-gradient13);
      }

      .st3 {
        stroke-width: .2px;
      }

      .st3, .st12 {
        stroke: #93d5de;
      }

      .st4 {
        stroke: url(#linear-gradient10);
      }

      .st5 {
        stroke: url(#linear-gradient9);
      }

      .st18, .st20 {
        font-size: 13.5px;
      }

      .st18, .st23 {
        fill: #fff;
      }

      .st6 {
        stroke: url(#linear-gradient11);
      }

      .st7 {
        fill: url(#linear-gradient5);
        stroke: url(#linear-gradient6);
      }

      .st8 {
        stroke: url(#linear-gradient3);
      }

      .st9 {
        stroke: url(#linear-gradient8);
      }

      .st19 {
        font-size: 42.2px;
      }

      .st19, .st22 {
        fill: #f16632;
      }

      .st10 {
        stroke: url(#linear-gradient7);
      }

      .st11 {
        stroke: url(#linear-gradient2);
      }

      .st24 {
        fill: #152245;
      }

      .st25 {
        fill: #172247;
      }

      .st25, .st26 {
        display: none;
      }

      .st12 {
        stroke-width: .8px;
      }

      .st13 {
        stroke: url(#linear-gradient12);
      }

      .st14 {
        stroke: #172247;
        stroke-width: .5px;
      }

      .st21 {
        fill: #93d5de;
      }

      .st22 {
        font-size: 31.2px;
      }

      .st15 {
        stroke: url(#linear-gradient1);
      }

      .st16 {
        stroke: url(#linear-gradient);
      }
    </style>
    <linearGradient id="linear-gradient" x1="128.5" y1="-60.9" x2="194.8" y2="-60.9" gradientUnits="userSpaceOnUse">
      <stop offset="0" stop-color="#0f81ba"/>
      <stop offset="1" stop-color="#24b9a8"/>
    </linearGradient>
    <linearGradient id="linear-gradient1" x1="128.5" y1="-60.9" x2="128.5" y2="-60.9" gradientUnits="userSpaceOnUse">
      <stop offset="0" stop-color="#0f81ba"/>
      <stop offset="1" stop-color="#24b9a8"/>
    </linearGradient>
    <linearGradient id="linear-gradient2" x1="-13.3" x2="53.2" xlink:href="#linear-gradient1"/>
    <linearGradient id="linear-gradient3" x1="371.4" x2="437.7" xlink:href="#linear-gradient1"/>
    <linearGradient id="linear-gradient4" x1="371.4" x2="371.4" xlink:href="#linear-gradient1"/>
    <linearGradient id="linear-gradient5" x1="229.7" y1="-60.9" x2="296.2" y2="-60.9" gradientUnits="userSpaceOnUse">
      <stop offset="0" stop-color="#0f81ba"/>
      <stop offset="1" stop-color="#24b9a8"/>
    </linearGradient>
    <linearGradient id="linear-gradient6" x1="229.7" y1="-60.9" x2="296.2" y2="-60.9" gradientUnits="userSpaceOnUse">
      <stop offset="0" stop-color="#0f81ba"/>
      <stop offset="1" stop-color="#24b9a8"/>
    </linearGradient>
    <linearGradient id="linear-gradient7" x1="560" y1="-245.8" x2="609.1" y2="-245.8" xlink:href="#linear-gradient1"/>
    <linearGradient id="linear-gradient8" x1="455" y1="-245.8" x2="504.2" y2="-245.8" xlink:href="#linear-gradient1"/>
    <linearGradient id="linear-gradient9" x1="560.3" y1="-181.6" x2="609.4" y2="-181.6" xlink:href="#linear-gradient1"/>
    <linearGradient id="linear-gradient10" x1="455.3" y1="-181.6" x2="504.5" y2="-181.6" xlink:href="#linear-gradient1"/>
    <linearGradient id="linear-gradient11" x1="560" y1="-138.8" x2="609.1" y2="-138.8" xlink:href="#linear-gradient1"/>
    <linearGradient id="linear-gradient12" x1="455" y1="-138.8" x2="504.2" y2="-138.8" xlink:href="#linear-gradient1"/>
    <linearGradient id="linear-gradient13" x1="560.3" y1="-74.7" x2="609.4" y2="-74.7" xlink:href="#linear-gradient1"/>
    <linearGradient id="linear-gradient14" x1="455.3" y1="-74.7" x2="504.5" y2="-74.7" xlink:href="#linear-gradient1"/>
  </defs>
  <g id="Layer_1">
    <rect class="st24" x="-31.4" y="-278.2" width="240.9" height="243.8"/>
    <g class="st26">
      <g class="st26">
        <polyline class="st12" points="57 -113.8 62.6 -108.5 61 -99.8 66.7 -107.6 62.8 -94.8 68.7 -105.6 65.1 -90 74.7 -101.1 70.2 -84.9 80.2 -97.9 78.3 -82.3 85 -94.8 87.1 -94.7 89.6 -76.8 91.7 -94.7"/>
        <polyline class="st12" points="82 -116.6 87.2 -111.3 87.2 -108.9 83 -104.5 60.2 -119.5"/>
        <polyline class="st12" points="38.7 -235.9 49 -200.3 46.5 -189.6 46.8 -182.7 34.3 -191.7 31.5 -200.8 23.7 -193.9"/>
        <polyline class="st12" points="49 -200.3 52.4 -197.1 62.2 -207.8 52.4 -227.9"/>
        <polyline class="st12" points="60.8 -191.3 58.9 -172 72.2 -156.9 73.9 -148.6 55.7 -136.2"/>
        <polyline class="st12" points="33.4 -155.1 34.4 -147.5 51.9 -138.2"/>
        <polyline class="st12" points="72.2 -156.9 65.1 -160 60 -158.3 54.6 -154.7 62.8 -148 70.5 -149.6 73.9 -148.6"/>
        <polyline class="st12" points="77.2 -115.5 78.6 -153.1 74 -164.5 59.4 -177"/>
        <polyline class="st12" points="52.2 -85.3 57.8 -95.8 52.8 -94.3 59 -109.8 51 -103 57 -113.8 60.2 -119.5 28.2 -131.5 38 -137.6 51.9 -138.2 66.8 -130.6 77.2 -115.5 82 -116.6 85.4 -122.6 89.8 -124.4 93.2 -124.3 97.6 -122.6 100.9 -116.5"/>
        <polyline class="st12" points="35.4 -159.7 72.2 -205.5 51.9 -228.3 38.7 -235.9 28 -223.2 23.4 -194.1 35.4 -159.7 22.2 -126.9 36.6 -121.3 31.7 -113.5 37.1 -113.8 33.4 -105.6 37 -106.7 33.8 -99.9 35.7 -100.5 33 -85.3"/>
        <polyline class="st12" points="91.4 -94.3 93.7 -94.8 104.9 -82.3 98.6 -97.9 108.5 -84.9 104.1 -101.1 113.6 -90 110.1 -105.6 116 -94.8 112 -107.6 117.8 -99.8 116.1 -108.5 121.7 -113.8"/>
        <line class="st12" x1="99.4" y1="-105.1" x2="118.5" y2="-119.5"/>
        <polyline class="st12" points="140 -235.9 129.8 -200.3 132.3 -189.6 132 -182.7 144.5 -191.7 147.3 -200.8 155 -193.9"/>
        <polyline class="st12" points="129.8 -200.3 126.4 -197.1 116.6 -207.8 126.4 -227.9"/>
        <polyline class="st12" points="118 -191.3 119.8 -172 106.5 -156.9 104.8 -148.6 123 -136.2"/>
        <polyline class="st12" points="145.4 -155.1 144.4 -147.5 126.8 -138.2"/>
        <polyline class="st12" points="106.5 -156.9 113.7 -160 118.5 -158.4 124.2 -154.7 115.9 -148 108.3 -149.6 104.8 -148.6"/>
        <polyline class="st12" points="101.1 -116.6 99.4 -155.6 104.8 -164.5 119.3 -177"/>
        <polyline class="st12" points="145.8 -85.3 143.1 -100.5 145 -99.9 141.8 -106.7 145.4 -105.6 141.7 -113.8 147.1 -113.5 142.2 -121.3 156.6 -126.9 143.4 -159.7 155.4 -194.1 150.8 -223.2 140 -235.9 126.8 -228.3 106.5 -205.5 143.4 -159.7"/>
        <polyline class="st12" points="101.1 -116.6 105.3 -115 111.9 -130.6 126.8 -138.2 140.8 -137.6 150.5 -131.5 118.5 -119.5 121.7 -113.8 127.8 -103 119.8 -109.8 126 -94.3 120.9 -95.8 126.5 -85.3"/>
        <path class="st12" d="M87-118.6"/>
        <path class="st12" d="M99.8-105.8"/>
        <path class="st12" d="M83-104.5"/>
        <path class="st12" d="M100.8-139.8"/>
        <polyline class="st12" points="78.2 -140.6 82.8 -145.5 89.1 -146.8 94.9 -145.6 100.1 -140.6"/>
        <line class="st12" x1="72.2" y1="-205.5" x2="106.8" y2="-205.5"/>
        <path class="st12" d="M82.8-104.7c2.4,1,5.7,2.1,8.7,3l8.1-3.4"/>
        <path class="st12" d="M77.2-115"/>
        <path class="st12" d="M91.1-96.8"/>
        <path class="st12" d="M91.1-123.7"/>
        <path class="st12" d="M101.1-116.7"/>
        <polyline class="st12" points="101.1 -116.6 95 -111.6 95 -109.2 99.1 -104.9"/>
      </g>
      <polyline class="st12" points="49.1 -199.9 51.9 -197.1 61.7 -207.8 51.8 -227.9 38.8 -235.5 49.1 -199.9 45.9 -189.6 46.3 -182.7 33.8 -191.7 31 -200.8 23.2 -193.9"/>
      <line class="st12" x1="106" y1="-205.5" x2="71.7" y2="-205.5"/>
      <polyline class="st12" points="154.5 -193.9 146.8 -200.8 143.9 -191.7 131.4 -182.7 131.8 -189.6 129.2 -200.3 138.8 -235.4 125.9 -227.9 116 -207.8 125.8 -197.1 129.2 -200.3"/>
      <polyline class="st12" points="71.7 -156.9 64.6 -160 59.5 -158.3 54.1 -154.7 62.3 -148 69.9 -149.6 73.4 -148.6 77.6 -140.6 82.3 -145.5 88.6 -146.8 94.4 -145.6 99.6 -140.6 100.3 -139.8 104.3 -148.6 107.8 -149.6 115.4 -148 123.6 -154.7 118 -158.4 113.1 -160 106 -156.9"/>
      <path class="st12" d="M100.6-116.7"/>
      <polyline class="st12" points="83 -104.5 91.2 -101.6 99.4 -105.1 118 -119.5 121.2 -113.8 115.6 -108.5 117.3 -99.8 111.5 -107.6 115.5 -94.8 109.6 -105.6 113.1 -90 103.5 -101.1 108 -84.9 98 -97.9 104.3 -82.3 93.2 -94.8 91.2 -94.7 89.1 -76.8 86.5 -94.7 84.5 -94.8 77.7 -82.3 79.7 -97.9 69.7 -84.9 74.2 -101.1 64.6 -90 68.1 -105.6 62.2 -94.8 66.2 -107.6 60.4 -99.8 62.1 -108.5 56.5 -113.8 59.7 -119.5 83 -104.5 86.7 -108.9 86.7 -111.3 81.5 -116.6"/>
      <polyline class="st12" points="145.3 -85.3 142.6 -100.5 144.5 -99.9 141.3 -106.7 144.8 -105.6 141.2 -113.8 146.6 -113.5 141.7 -121.3 156.1 -126.9 142.9 -159.7 154.9 -194.1 150.2 -223.2 139.5 -235.9 126.3 -228.3 106 -205.5 142.9 -159.7 144.8 -155.1 143.8 -147.5 126.3 -138.2 122.5 -136.2 104.3 -148.6 106 -156.9 119.3 -172 117.4 -191.3 118.8 -177 104.3 -164.5 98.9 -155.6 100.5 -116.6 94.4 -111.6 94.4 -109.2 99.4 -105.1"/>
      <polyline class="st12" points="100.5 -116.6 104.8 -115 111.4 -130.6 126.3 -138.2 140.2 -137.6 150 -131.5 118 -119.5 121.2 -113.8 127.2 -103 119.3 -109.8 125.5 -94.3 120.4 -95.8 126 -85.3"/>
      <polyline class="st12" points="32.4 -85.3 35.1 -100.5 33.2 -99.9 36.4 -106.7 32.9 -105.6 36.5 -113.8 31.1 -113.5 36.1 -121.3 21.6 -126.9 34.8 -159.7 22.8 -194.1 27.5 -223.2 38.2 -235.9 51.4 -228.3 71.7 -205.5 34.8 -159.7 32.9 -155.1 33.9 -147.5 51.4 -138.2 55.2 -136.2 73.4 -148.6 71.7 -156.9 58.4 -172 60.3 -191.3 58.9 -177 73.4 -164.5 78.1 -153.1 76.7 -115.5"/>
      <polyline class="st12" points="100.6 -116.7 97 -122.6 92.7 -124.3 89.2 -124.4 84.9 -122.6 81.5 -116.6 76.7 -115.5 66.3 -130.6 51.4 -138.2 37.5 -137.6 27.7 -131.5 59.7 -119.5 56.5 -113.8 50.5 -103 58.4 -109.8 52.2 -94.3 57.3 -95.8 51.7 -85.3"/>
    </g>
    <rect class="st24" x="454.5" y="-171.2" width="155.2" height="61.3"/>
    <rect class="st24" x="454.5" y="-106.8" width="155.2" height="37.1"/>
  </g>
  <g id="Layer_2">
    <g class="st26">
      <polyline class="st14" points="-28 127.9 -24.4 131.2 -25.5 136.7 -21.9 131.8 -24.4 139.8 -20.7 133 -22.9 142.8 -16.9 135.9 -19.7 146 -13.4 137.9 -14.6 147.7 -10.4 139.8 -9.1 139.9 -7.5 151.1 -6.2 139.9"/>
      <polyline class="st14" points="-12.3 126.2 -9 129.5 -9 131 -11.6 133.7 -26 124.3"/>
      <polyline class="st14" points="-39.4 51.2 -33 73.6 -34.6 80.3 -34.4 84.6 -42.2 79 -44 73.3 -48.9 77.6"/>
      <polyline class="st14" points="-33 73.6 -30.9 75.6 -24.7 68.9 -30.9 56.3"/>
      <polyline class="st14" points="-25.6 79.3 -26.8 91.3 -18.4 100.8 -17.3 106 -28.8 113.8"/>
      <polyline class="st14" points="-42.8 102 -42.2 106.7 -31.1 112.6"/>
      <polyline class="st14" points="-18.4 100.8 -22.9 98.9 -26.1 100 -29.5 102.2 -24.3 106.4 -19.5 105.4 -17.3 106"/>
      <polyline class="st14" points="-15.3 126.8 -14.4 103.2 -17.3 96.1 -26.5 88.2"/>
      <polyline class="st14" points="-31 145.8 -27.5 139.2 -30.6 140.1 -26.7 130.4 -31.7 134.7 -28 127.9 -26 124.3 -46 116.8 -39.9 112.9 -31.1 112.6 -21.8 117.3 -15.3 126.8 -12.3 126.2 -10.1 122.3 -7.4 121.3 -5.3 121.3 -2.5 122.3 -.4 126.2"/>
      <polyline class="st14" points="-41.5 99.1 -18.4 70.3 -31.1 56 -39.4 51.2 -46.2 59.2 -49.1 77.5 -41.5 99.1 -49.8 119.7 -40.8 123.2 -43.9 128.1 -40.5 127.9 -42.8 133 -40.6 132.4 -42.6 136.6 -41.4 136.3 -43.1 145.8"/>
      <polyline class="st14" points="-6.4 140.1 -4.9 139.8 2.1 147.7 -1.9 137.9 4.4 146 1.6 135.9 7.6 142.8 5.4 133 9.1 139.8 6.6 131.8 10.2 136.7 9.2 131.2 12.7 127.9"/>
      <line class="st14" x1="-1.4" y1="133.4" x2="10.7" y2="124.3"/>
      <polyline class="st14" points="24.2 51.2 17.7 73.6 19.3 80.3 19.1 84.6 26.9 79 28.7 73.3 33.6 77.6"/>
      <polyline class="st14" points="17.7 73.6 15.6 75.6 9.4 68.9 15.6 56.3"/>
      <polyline class="st14" points="10.3 79.3 11.5 91.3 3.1 100.8 2.1 106 13.5 113.8"/>
      <polyline class="st14" points="27.5 102 26.9 106.7 15.9 112.6"/>
      <polyline class="st14" points="3.1 100.8 7.6 98.9 10.7 99.9 14.2 102.2 9 106.4 4.2 105.4 2.1 106"/>
      <polyline class="st14" points="-.3 126.2 -1.3 101.6 2 96.1 11.2 88.2"/>
      <polyline class="st14" points="27.8 145.8 26.1 136.3 27.3 136.6 25.3 132.4 27.5 133 25.2 127.9 28.6 128.1 25.5 123.2 34.6 119.7 26.3 99.1 33.8 77.5 30.9 59.2 24.2 51.2 15.9 56 3.1 70.3 26.3 99.1"/>
      <polyline class="st14" points="-.3 126.2 2.4 127.2 6.5 117.3 15.9 112.6 24.6 112.9 30.8 116.8 10.7 124.3 12.7 127.9 16.4 134.7 11.4 130.4 15.3 140.1 12.2 139.2 15.7 145.8"/>
      <path class="st14" d="M-9.1,124.9"/>
      <path class="st14" d="M-1.1,132.9"/>
      <path class="st14" d="M-11.6,133.7"/>
      <path class="st14" d="M-.5,111.6"/>
      <polyline class="st14" points="-14.7 111.1 -11.8 108 -7.8 107.2 -4.2 107.9 -.9 111.1"/>
      <line class="st14" x1="-18.4" y1="70.3" x2="3.3" y2="70.3"/>
      <path class="st14" d="M-11.8,133.6c1.5.6,3.5,1.3,5.5,1.9l5.1-2.1"/>
      <path class="st14" d="M-15.3,127.2"/>
      <path class="st14" d="M-6.6,138.6"/>
      <path class="st14" d="M-6.6,121.7"/>
      <path class="st14" d="M-.3,126.1"/>
      <polyline class="st14" points="-.3 126.2 -4.1 129.3 -4.1 130.8 -1.5 133.5"/>
    </g>
    <text class="st19" transform="translate(-14 -72.5)"><tspan x="0" y="0">Revontulet</tspan></text>
    <line class="st16" x1="128.5" y1="-60.9" x2="194.8" y2="-60.9"/>
    <path class="st15" d="M128.5-60.9"/>
    <line class="st11" x1="-13.3" y1="-60.9" x2="53.2" y2="-60.9"/>
    <rect class="st25" x="53.2" y="-68.2" width="75.3" height="14.6"/>
    <text class="st18" transform="translate(54.8 -57.6)"><tspan x="0" y="0">Intelligence</tspan></text>
    <g>
      <g class="st26">
        <polyline class="st12" points="58.4 -144.5 64.1 -139.2 62.4 -130.4 68.2 -138.3 64.2 -125.4 70.1 -136.3 66.6 -120.6 76.2 -131.7 71.7 -115.4 81.8 -128.5 79.8 -112.7 86.6 -125.4 88.7 -125.3 91.3 -107.2 93.4 -125.3"/>
        <polyline class="st12" points="83.6 -147.3 88.8 -142 88.8 -139.5 84.6 -135.2 61.6 -150.3"/>
        <polyline class="st12" points="40 -267.5 50.3 -231.7 47.8 -220.9 48.1 -213.9 35.5 -223.1 32.7 -232.2 24.9 -225.2"/>
        <polyline class="st12" points="50.3 -231.7 53.8 -228.4 63.6 -239.2 53.7 -259.5"/>
        <polyline class="st12" points="62.2 -222.6 60.4 -203.2 73.7 -187.9 75.4 -179.6 57.1 -167.1"/>
        <polyline class="st12" points="34.6 -186.1 35.6 -178.5 53.3 -169.1"/>
        <polyline class="st12" points="73.7 -187.9 66.6 -191.1 61.4 -189.3 56 -185.7 64.3 -179 72 -180.6 75.4 -179.6"/>
        <polyline class="st12" points="78.8 -146.2 80.2 -184.1 75.5 -195.6 60.8 -208.2"/>
        <polyline class="st12" points="53.6 -115.8 59.2 -126.3 54.1 -124.9 60.4 -140.5 52.4 -133.6 58.4 -144.5 61.6 -150.3 29.4 -162.3 39.3 -168.5 53.3 -169.1 68.3 -161.5 78.8 -146.2 83.6 -147.3 87 -153.4 91.4 -155.2 94.9 -155.1 99.3 -153.4 102.7 -147.3"/>
        <polyline class="st12" points="36.6 -190.8 73.7 -236.9 53.3 -259.9 40 -267.5 29.2 -254.8 24.5 -225.4 36.6 -190.8 23.3 -157.7 37.8 -152.1 32.9 -144.2 38.3 -144.6 34.6 -136.3 38.2 -137.3 35 -130.5 36.9 -131.1 34.2 -115.8"/>
        <polyline class="st12" points="93.1 -124.9 95.4 -125.4 106.6 -112.7 100.3 -128.5 110.3 -115.4 105.8 -131.7 115.5 -120.6 111.9 -136.3 117.8 -125.4 113.8 -138.3 119.7 -130.4 118 -139.2 123.6 -144.5"/>
        <line class="st12" x1="101.1" y1="-135.7" x2="120.4" y2="-150.3"/>
        <polyline class="st12" points="142.1 -267.5 131.7 -231.7 134.3 -220.9 133.9 -213.9 146.5 -223.1 149.4 -232.2 157.2 -225.2"/>
        <polyline class="st12" points="131.7 -231.7 128.3 -228.4 118.4 -239.2 128.3 -259.5"/>
        <polyline class="st12" points="119.8 -222.6 121.7 -203.2 108.3 -187.9 106.6 -179.6 124.9 -167.1"/>
        <polyline class="st12" points="147.4 -186.1 146.4 -178.5 128.7 -169.1"/>
        <polyline class="st12" points="108.3 -187.9 115.5 -191.1 120.4 -189.5 126.1 -185.7 117.8 -179 110.1 -180.6 106.6 -179.6"/>
        <polyline class="st12" points="102.8 -147.3 101.1 -186.6 106.6 -195.6 121.2 -208.2"/>
        <polyline class="st12" points="147.9 -115.8 145.1 -131.1 147.1 -130.5 143.9 -137.3 147.4 -136.3 143.7 -144.6 149.2 -144.2 144.2 -152.1 158.8 -157.7 145.4 -190.8 157.5 -225.4 152.9 -254.8 142.1 -267.5 128.7 -259.9 108.3 -236.9 145.4 -190.8"/>
        <polyline class="st12" points="102.8 -147.3 107.1 -145.7 113.7 -161.5 128.7 -169.1 142.8 -168.5 152.7 -162.3 120.4 -150.3 123.6 -144.5 129.7 -133.6 121.7 -140.5 127.9 -124.9 122.8 -126.3 128.4 -115.8"/>
        <path class="st12" d="M88.7-149.4"/>
        <path class="st12" d="M101.5-136.5"/>
        <path class="st12" d="M84.6-135.2"/>
        <path class="st12" d="M102.5-170.7"/>
        <polyline class="st12" points="79.7 -171.5 84.4 -176.5 90.8 -177.8 96.6 -176.6 101.8 -171.5"/>
        <line class="st12" x1="73.7" y1="-236.9" x2="108.6" y2="-236.9"/>
        <path class="st12" d="M84.4-135.4c2.4,1,5.7,2.1,8.7,3l8.2-3.4"/>
        <path class="st12" d="M78.7-145.7"/>
        <path class="st12" d="M92.7-127.4"/>
        <path class="st12" d="M92.7-154.5"/>
        <path class="st12" d="M102.8-147.5"/>
        <polyline class="st12" points="102.8 -147.3 96.7 -142.3 96.7 -139.9 100.8 -135.5"/>
      </g>
      <polyline class="st12" points="50.4 -231.3 53.2 -228.4 63.1 -239.2 53.2 -259.5 40.1 -267.2 50.4 -231.3 47.3 -220.9 47.6 -213.9 35 -223.1 32.1 -232.2 24.3 -225.2"/>
      <line class="st12" x1="107.8" y1="-236.9" x2="73.2" y2="-236.9"/>
      <polyline class="st12" points="156.7 -225.2 148.8 -232.2 146 -223.1 133.4 -213.9 133.7 -220.9 131.2 -231.7 140.8 -267.1 127.8 -259.5 117.9 -239.2 127.8 -228.4 131.2 -231.7"/>
      <polyline class="st12" points="73.2 -187.9 66 -191.1 60.9 -189.3 55.5 -185.7 63.7 -179 71.4 -180.6 74.9 -179.6 79.2 -171.5 83.9 -176.5 90.2 -177.8 96 -176.6 101.3 -171.5 102 -170.7 106.1 -179.6 109.6 -180.6 117.2 -179 125.5 -185.7 119.9 -189.5 115 -191.1 107.8 -187.9"/>
      <path class="st12" d="M102.3-147.5"/>
      <polyline class="st12" points="84.6 -135.2 92.8 -132.2 101.1 -135.7 119.9 -150.3 123.1 -144.5 117.5 -139.2 119.1 -130.4 113.3 -138.3 117.3 -125.4 111.4 -136.3 114.9 -120.6 105.3 -131.7 109.8 -115.4 99.8 -128.5 106.1 -112.7 94.9 -125.4 92.8 -125.3 90.7 -107.2 88.1 -125.3 86.1 -125.4 79.3 -112.7 81.2 -128.5 71.2 -115.4 75.7 -131.7 66 -120.6 69.6 -136.3 63.7 -125.4 67.7 -138.3 61.9 -130.4 63.5 -139.2 57.9 -144.5 61.1 -150.3 84.6 -135.2 88.3 -139.5 88.3 -142 83.1 -147.3"/>
      <polyline class="st12" points="147.3 -115.8 144.6 -131.1 146.5 -130.5 143.3 -137.3 146.9 -136.3 143.2 -144.6 148.6 -144.2 143.7 -152.1 158.2 -157.7 144.9 -190.8 157 -225.4 152.4 -254.8 141.5 -267.5 128.2 -259.9 107.8 -236.9 144.9 -190.8 146.9 -186.1 145.9 -178.5 128.2 -169.1 124.4 -167.1 106.1 -179.6 107.8 -187.9 121.2 -203.2 119.3 -222.6 120.7 -208.2 106 -195.6 100.6 -186.6 102.3 -147.3 96.1 -142.3 96.1 -139.9 101.1 -135.7"/>
      <polyline class="st12" points="102.3 -147.3 106.6 -145.7 113.2 -161.5 128.2 -169.1 142.3 -168.5 152.1 -162.3 119.9 -150.3 123.1 -144.5 129.2 -133.6 121.1 -140.5 127.4 -124.9 122.3 -126.3 127.9 -115.8"/>
      <polyline class="st12" points="33.7 -115.8 36.4 -131.1 34.5 -130.5 37.7 -137.3 34.1 -136.3 37.8 -144.6 32.3 -144.2 37.3 -152.1 22.8 -157.7 36.1 -190.8 24 -225.4 28.6 -254.8 39.5 -267.5 52.8 -259.9 73.2 -236.9 36.1 -190.8 34.1 -186.1 35.1 -178.5 52.8 -169.1 56.6 -167.1 74.9 -179.6 73.2 -187.9 59.8 -203.2 61.7 -222.6 60.3 -208.2 75 -195.6 79.6 -184.1 78.3 -146.2"/>
      <polyline class="st12" points="102.3 -147.5 98.7 -153.4 94.3 -155.1 90.9 -155.2 86.5 -153.4 83.1 -147.3 78.3 -146.2 67.8 -161.5 52.8 -169.1 38.7 -168.5 28.9 -162.3 61.1 -150.3 57.9 -144.5 51.8 -133.6 59.8 -140.5 53.6 -124.9 58.7 -126.3 53.1 -115.8"/>
    </g>
    <text class="st19" transform="translate(229 -72.5)"><tspan x="0" y="0">Revontulet</tspan></text>
    <line class="st8" x1="371.4" y1="-60.9" x2="437.7" y2="-60.9"/>
    <path class="st0" d="M371.4-60.9"/>
    <line class="st7" x1="229.7" y1="-60.9" x2="296.2" y2="-60.9"/>
    <text class="st20" transform="translate(297.7 -57.6)"><tspan x="0" y="0">Intelligence</tspan></text>
    <g>
      <g class="st26">
        <polyline class="st12" points="301.4 -144.5 307 -139.2 305.3 -130.4 311.2 -138.3 307.1 -125.4 313.1 -136.3 309.5 -120.6 319.2 -131.7 314.7 -115.4 324.7 -128.5 322.8 -112.7 329.6 -125.4 331.6 -125.3 334.2 -107.2 336.3 -125.3"/>
        <polyline class="st12" points="326.6 -147.3 331.8 -142 331.8 -139.5 327.6 -135.2 304.6 -150.3"/>
        <polyline class="st12" points="282.9 -267.5 293.3 -231.7 290.7 -220.9 291.1 -213.9 278.5 -223.1 275.6 -232.2 267.8 -225.2"/>
        <polyline class="st12" points="293.3 -231.7 296.7 -228.4 306.6 -239.2 296.7 -259.5"/>
        <polyline class="st12" points="305.2 -222.6 303.3 -203.2 316.7 -187.9 318.4 -179.6 300.1 -167.1"/>
        <polyline class="st12" points="277.6 -186.1 278.6 -178.5 296.3 -169.1"/>
        <polyline class="st12" points="316.7 -187.9 309.5 -191.1 304.4 -189.3 298.9 -185.7 307.2 -179 314.9 -180.6 318.4 -179.6"/>
        <polyline class="st12" points="321.7 -146.2 323.1 -184.1 318.4 -195.6 303.8 -208.2"/>
        <polyline class="st12" points="296.6 -115.8 302.2 -126.3 297.1 -124.9 303.3 -140.5 295.3 -133.6 301.4 -144.5 304.6 -150.3 272.3 -162.3 282.2 -168.5 296.3 -169.1 311.3 -161.5 321.7 -146.2 326.6 -147.3 330 -153.4 334.4 -155.2 337.8 -155.1 342.2 -153.4 345.6 -147.3"/>
        <polyline class="st12" points="279.6 -190.8 316.7 -236.9 296.3 -259.9 282.9 -267.5 272.1 -254.8 267.4 -225.4 279.6 -190.8 266.2 -157.7 280.8 -152.1 275.8 -144.2 281.3 -144.6 277.6 -136.3 281.1 -137.3 277.9 -130.5 279.8 -131.1 277.1 -115.8"/>
        <polyline class="st12" points="336 -124.9 338.4 -125.4 349.6 -112.7 343.2 -128.5 353.3 -115.4 348.8 -131.7 358.4 -120.6 354.8 -136.3 360.8 -125.4 356.8 -138.3 362.6 -130.4 360.9 -139.2 366.6 -144.5"/>
        <line class="st12" x1="344.1" y1="-135.7" x2="363.4" y2="-150.3"/>
        <polyline class="st12" points="385 -267.5 374.7 -231.7 377.2 -220.9 376.9 -213.9 389.5 -223.1 392.3 -232.2 400.1 -225.2"/>
        <polyline class="st12" points="374.7 -231.7 371.2 -228.4 361.4 -239.2 371.3 -259.5"/>
        <polyline class="st12" points="362.8 -222.6 364.6 -203.2 351.2 -187.9 349.5 -179.6 367.9 -167.1"/>
        <polyline class="st12" points="390.4 -186.1 389.4 -178.5 371.7 -169.1"/>
        <polyline class="st12" points="351.2 -187.9 358.4 -191.1 363.4 -189.5 369 -185.7 360.7 -179 353 -180.6 349.5 -179.6"/>
        <polyline class="st12" points="345.7 -147.3 344.1 -186.6 349.5 -195.6 364.2 -208.2"/>
        <polyline class="st12" points="390.8 -115.8 388.1 -131.1 390 -130.5 386.8 -137.3 390.4 -136.3 386.7 -144.6 392.1 -144.2 387.2 -152.1 401.7 -157.7 388.4 -190.8 400.5 -225.4 395.8 -254.8 385 -267.5 371.7 -259.9 351.2 -236.9 388.4 -190.8"/>
        <polyline class="st12" points="345.7 -147.3 350.1 -145.7 356.7 -161.5 371.7 -169.1 385.7 -168.5 395.6 -162.3 363.4 -150.3 366.6 -144.5 372.6 -133.6 364.6 -140.5 370.9 -124.9 365.8 -126.3 371.4 -115.8"/>
        <path class="st12" d="M331.6-149.4"/>
        <path class="st12" d="M344.5-136.5"/>
        <path class="st12" d="M327.6-135.2"/>
        <path class="st12" d="M345.5-170.7"/>
        <polyline class="st12" points="322.7 -171.5 327.4 -176.5 333.7 -177.8 339.5 -176.6 344.8 -171.5"/>
        <line class="st12" x1="316.7" y1="-236.9" x2="351.5" y2="-236.9"/>
        <path class="st12" d="M327.3-135.4c2.4,1,5.7,2.1,8.7,3l8.2-3.4"/>
        <path class="st12" d="M321.6-145.7"/>
        <path class="st12" d="M335.7-127.4"/>
        <path class="st12" d="M335.7-154.5"/>
        <path class="st12" d="M345.8-147.5"/>
        <polyline class="st12" points="345.7 -147.3 339.6 -142.3 339.6 -139.9 343.8 -135.5"/>
      </g>
      <polyline class="st12" points="293.3 -231.3 296.2 -228.4 306 -239.2 296.1 -259.5 283 -267.2 293.3 -231.3 290.2 -220.9 290.5 -213.9 277.9 -223.1 275.1 -232.2 267.3 -225.2"/>
      <line class="st12" x1="350.7" y1="-236.9" x2="316.2" y2="-236.9"/>
      <polyline class="st12" points="399.6 -225.2 391.8 -232.2 388.9 -223.1 376.3 -213.9 376.7 -220.9 374.1 -231.7 383.7 -267.1 370.7 -259.5 360.8 -239.2 370.7 -228.4 374.1 -231.7"/>
      <polyline class="st12" points="316.2 -187.9 309 -191.1 303.8 -189.3 298.4 -185.7 306.7 -179 314.4 -180.6 317.9 -179.6 322.1 -171.5 326.8 -176.5 333.2 -177.8 339 -176.6 344.2 -171.5 344.9 -170.7 349 -179.6 352.5 -180.6 360.2 -179 368.5 -185.7 362.8 -189.5 357.9 -191.1 350.7 -187.9"/>
      <path class="st12" d="M345.2-147.5"/>
      <polyline class="st12" points="327.6 -135.2 335.8 -132.2 344.1 -135.7 362.8 -150.3 366 -144.5 360.4 -139.2 362.1 -130.4 356.2 -138.3 360.3 -125.4 354.3 -136.3 357.9 -120.6 348.2 -131.7 352.7 -115.4 342.7 -128.5 349 -112.7 337.8 -125.4 335.8 -125.3 333.7 -107.2 331.1 -125.3 329.1 -125.4 322.2 -112.7 324.2 -128.5 314.1 -115.4 318.7 -131.7 309 -120.6 312.6 -136.3 306.6 -125.4 310.6 -138.3 304.8 -130.4 306.5 -139.2 300.8 -144.5 304 -150.3 327.6 -135.2 331.2 -139.5 331.2 -142 326 -147.3"/>
      <polyline class="st12" points="390.3 -115.8 387.6 -131.1 389.5 -130.5 386.3 -137.3 389.9 -136.3 386.1 -144.6 391.6 -144.2 386.6 -152.1 401.2 -157.7 387.9 -190.8 400 -225.4 395.3 -254.8 384.5 -267.5 371.2 -259.9 350.7 -236.9 387.9 -190.8 389.9 -186.1 388.8 -178.5 371.2 -169.1 367.3 -167.1 349 -179.6 350.7 -187.9 364.1 -203.2 362.2 -222.6 363.6 -208.2 349 -195.6 343.6 -186.6 345.2 -147.3 339.1 -142.3 339.1 -139.9 344.1 -135.7"/>
      <polyline class="st12" points="345.2 -147.3 349.5 -145.7 356.1 -161.5 371.2 -169.1 385.2 -168.5 395.1 -162.3 362.8 -150.3 366 -144.5 372.1 -133.6 364.1 -140.5 370.3 -124.9 365.2 -126.3 370.9 -115.8"/>
      <polyline class="st12" points="276.6 -115.8 279.3 -131.1 277.4 -130.5 280.6 -137.3 277 -136.3 280.7 -144.6 275.3 -144.2 280.2 -152.1 265.7 -157.7 279 -190.8 266.9 -225.4 271.6 -254.8 282.4 -267.5 295.7 -259.9 316.2 -236.9 279 -190.8 277 -186.1 278 -178.5 295.7 -169.1 299.5 -167.1 317.9 -179.6 316.2 -187.9 302.8 -203.2 304.6 -222.6 303.2 -208.2 317.9 -195.6 322.6 -184.1 321.2 -146.2"/>
      <polyline class="st12" points="345.2 -147.5 341.7 -153.4 337.3 -155.1 333.8 -155.2 329.4 -153.4 326 -147.3 321.2 -146.2 310.7 -161.5 295.7 -169.1 281.7 -168.5 271.8 -162.3 304 -150.3 300.8 -144.5 294.8 -133.6 302.8 -140.5 296.5 -124.9 301.6 -126.3 296 -115.8"/>
    </g>
    <g>
      <text class="st22" transform="translate(454.6 -253.8)"><tspan x="0" y="0">Revontulet</tspan></text>
      <g>
        <line class="st10" x1="560" y1="-245.8" x2="609.1" y2="-245.8"/>
        <line class="st9" x1="455" y1="-245.8" x2="504.2" y2="-245.8"/>
      </g>
      <text class="st21" transform="translate(505.6 -243.8)"><tspan x="0" y="0">Intelligence</tspan></text>
      <g>
        <g class="st26">
          <polyline class="st3" points="527.3 -223.5 528 -222.8 527.8 -221.6 528.6 -222.6 528.1 -220.9 528.9 -222.4 528.4 -220.3 529.7 -221.8 529.1 -219.6 530.4 -221.3 530.1 -219.2 531.1 -220.9 531.3 -220.9 531.7 -218.5 531.9 -220.9"/>
          <polyline class="st3" points="530.6 -223.9 531.3 -223.1 531.3 -222.8 530.8 -222.2 527.7 -224.3"/>
          <polyline class="st3" points="524.8 -240.1 526.2 -235.2 525.9 -233.8 525.9 -232.8 524.3 -234.1 523.9 -235.3 522.8 -234.4"/>
          <polyline class="st3" points="526.2 -235.2 526.7 -234.8 528 -236.3 526.7 -239"/>
          <polyline class="st3" points="527.8 -234 527.6 -231.4 529.3 -229.3 529.6 -228.2 527.1 -226.5"/>
          <polyline class="st3" points="524.1 -229.1 524.3 -228.1 526.6 -226.8"/>
          <polyline class="st3" points="529.3 -229.3 528.4 -229.8 527.7 -229.5 527 -229 528.1 -228.1 529.1 -228.3 529.6 -228.2"/>
          <polyline class="st3" points="530 -223.7 530.2 -228.8 529.6 -230.4 527.6 -232.1"/>
          <polyline class="st3" points="526.7 -219.6 527.4 -221 526.7 -220.8 527.6 -222.9 526.5 -222 527.3 -223.5 527.7 -224.3 523.4 -225.9 524.7 -226.7 526.6 -226.8 528.6 -225.8 530 -223.7 530.6 -223.9 531.1 -224.7 531.7 -224.9 532.1 -224.9 532.7 -224.7 533.2 -223.9"/>
          <polyline class="st3" points="524.4 -229.7 529.3 -235.9 526.6 -239 524.8 -240.1 523.4 -238.4 522.8 -234.4 524.4 -229.7 522.6 -225.3 524.6 -224.5 523.9 -223.4 524.6 -223.5 524.1 -222.4 524.6 -222.5 524.2 -221.6 524.4 -221.7 524.1 -219.6"/>
          <polyline class="st3" points="531.9 -220.8 532.2 -220.9 533.7 -219.2 532.9 -221.3 534.2 -219.6 533.6 -221.8 534.9 -220.3 534.4 -222.4 535.2 -220.9 534.7 -222.6 535.4 -221.6 535.2 -222.8 536 -223.5"/>
          <line class="st3" x1="533" y1="-222.3" x2="535.5" y2="-224.3"/>
          <polyline class="st3" points="538.4 -240.1 537 -235.2 537.4 -233.8 537.3 -232.8 539 -234.1 539.4 -235.3 540.4 -234.4"/>
          <polyline class="st3" points="537 -235.2 536.6 -234.8 535.3 -236.3 536.6 -239"/>
          <polyline class="st3" points="535.5 -234 535.7 -231.4 533.9 -229.3 533.7 -228.2 536.1 -226.5"/>
          <polyline class="st3" points="539.1 -229.1 539 -228.1 536.7 -226.8"/>
          <polyline class="st3" points="533.9 -229.3 534.9 -229.8 535.5 -229.5 536.3 -229 535.2 -228.1 534.2 -228.3 533.7 -228.2"/>
          <polyline class="st3" points="533.2 -223.9 533 -229.2 533.7 -230.4 535.6 -232.1"/>
          <polyline class="st3" points="539.2 -219.6 538.8 -221.7 539.1 -221.6 538.7 -222.5 539.1 -222.4 538.6 -223.5 539.4 -223.4 538.7 -224.5 540.6 -225.3 538.9 -229.7 540.5 -234.4 539.9 -238.4 538.4 -240.1 536.7 -239 533.9 -235.9 538.9 -229.7"/>
          <polyline class="st3" points="533.2 -223.9 533.8 -223.6 534.7 -225.8 536.7 -226.8 538.5 -226.7 539.8 -225.9 535.5 -224.3 536 -223.5 536.8 -222 535.7 -222.9 536.5 -220.8 535.9 -221 536.6 -219.6"/>
          <path class="st3" d="M531.3-224.1"/>
          <path class="st3" d="M533-222.4"/>
          <path class="st3" d="M530.8-222.2"/>
          <path class="st3" d="M533.2-227"/>
          <polyline class="st3" points="530.1 -227.1 530.8 -227.8 531.6 -228 532.4 -227.8 533.1 -227.1"/>
          <line class="st3" x1="529.3" y1="-235.9" x2="534" y2="-235.9"/>
          <path class="st3" d="M530.7-222.2c.3.1.8.3,1.2.4l1.1-.5"/>
          <path class="st3" d="M530-223.6"/>
          <path class="st3" d="M531.9-221.2"/>
          <path class="st3" d="M531.9-224.8"/>
          <path class="st3" d="M533.2-223.9"/>
          <polyline class="st3" points="533.2 -223.9 532.4 -223.2 532.4 -222.9 532.9 -222.3"/>
        </g>
        <polyline class="st3" points="526.2 -235.2 526.6 -234.8 527.9 -236.3 526.6 -239 524.9 -240 526.2 -235.2 525.8 -233.8 525.9 -232.8 524.2 -234.1 523.8 -235.3 522.8 -234.4"/>
        <line class="st3" x1="533.9" y1="-235.9" x2="529.3" y2="-235.9"/>
        <polyline class="st3" points="540.4 -234.4 539.3 -235.3 538.9 -234.1 537.3 -232.8 537.3 -233.8 537 -235.2 538.3 -240 536.5 -239 535.2 -236.3 536.5 -234.8 537 -235.2"/>
        <polyline class="st3" points="529.3 -229.3 528.3 -229.8 527.6 -229.5 526.9 -229 528 -228.1 529 -228.3 529.5 -228.2 530.1 -227.1 530.7 -227.8 531.5 -228 532.3 -227.8 533 -227.1 533.1 -227 533.6 -228.2 534.1 -228.3 535.1 -228.1 536.2 -229 535.5 -229.5 534.8 -229.8 533.9 -229.3"/>
        <path class="st3" d="M533.1-223.9"/>
        <polyline class="st3" points="530.8 -222.2 531.9 -221.8 533 -222.3 535.5 -224.3 535.9 -223.5 535.2 -222.8 535.4 -221.6 534.6 -222.6 535.1 -220.9 534.3 -222.4 534.8 -220.3 533.5 -221.8 534.1 -219.6 532.8 -221.3 533.6 -219.2 532.1 -220.9 531.9 -220.9 531.6 -218.5 531.3 -220.9 531 -220.9 530.1 -219.2 530.3 -221.3 529 -219.6 529.6 -221.8 528.3 -220.3 528.8 -222.4 528 -220.9 528.5 -222.6 527.8 -221.6 528 -222.8 527.2 -223.5 527.7 -224.3 530.8 -222.2 531.3 -222.8 531.3 -223.1 530.6 -223.9"/>
        <polyline class="st3" points="539.1 -219.6 538.8 -221.7 539 -221.6 538.6 -222.5 539.1 -222.4 538.6 -223.5 539.3 -223.4 538.6 -224.5 540.6 -225.3 538.8 -229.7 540.4 -234.4 539.8 -238.4 538.4 -240.1 536.6 -239 533.9 -235.9 538.8 -229.7 539.1 -229.1 538.9 -228.1 536.6 -226.8 536.1 -226.5 533.6 -228.2 533.9 -229.3 535.6 -231.4 535.4 -234 535.6 -232.1 533.6 -230.4 532.9 -229.2 533.1 -223.9 532.3 -223.2 532.3 -222.9 533 -222.3"/>
        <polyline class="st3" points="533.1 -223.9 533.7 -223.6 534.6 -225.8 536.6 -226.8 538.4 -226.7 539.8 -225.9 535.5 -224.3 535.9 -223.5 536.7 -222 535.6 -222.9 536.5 -220.8 535.8 -221 536.5 -219.6"/>
        <polyline class="st3" points="524 -219.6 524.4 -221.7 524.1 -221.6 524.5 -222.5 524.1 -222.4 524.6 -223.5 523.8 -223.4 524.5 -224.5 522.6 -225.3 524.3 -229.7 522.7 -234.4 523.3 -238.4 524.8 -240.1 526.5 -239 529.3 -235.9 524.3 -229.7 524.1 -229.1 524.2 -228.1 526.5 -226.8 527.1 -226.5 529.5 -228.2 529.3 -229.3 527.5 -231.4 527.7 -234 527.5 -232.1 529.5 -230.4 530.1 -228.8 529.9 -223.7"/>
        <polyline class="st3" points="533.1 -223.9 532.7 -224.7 532.1 -224.9 531.6 -224.9 531 -224.7 530.6 -223.9 529.9 -223.7 528.5 -225.8 526.5 -226.8 524.7 -226.7 523.4 -225.9 527.7 -224.3 527.2 -223.5 526.4 -222 527.5 -222.9 526.7 -220.8 527.3 -221 526.6 -219.6"/>
      </g>
    </g>
    <g>
      <text class="st22" transform="translate(454.7 -189.6)"><tspan x="0" y="0">Revontulet</tspan></text>
      <g>
        <line class="st5" x1="560.3" y1="-181.6" x2="609.4" y2="-181.6"/>
        <line class="st4" x1="455.3" y1="-181.6" x2="504.5" y2="-181.6"/>
      </g>
      <text class="st17" transform="translate(505.6 -179.6)"><tspan x="0" y="0">Intelligence</tspan></text>
    </g>
    <g>
      <text class="st22" transform="translate(454.6 -146.8)"><tspan x="0" y="0">Revontulet</tspan></text>
      <g>
        <line class="st6" x1="560" y1="-138.8" x2="609.1" y2="-138.8"/>
        <line class="st13" x1="455" y1="-138.8" x2="504.2" y2="-138.8"/>
      </g>
      <text class="st23" transform="translate(505.6 -136.8)"><tspan x="0" y="0">Intelligence</tspan></text>
      <g>
        <g class="st26">
          <polyline class="st3" points="527.3 -116.5 528 -115.8 527.8 -114.6 528.6 -115.7 528.1 -113.9 528.9 -115.4 528.4 -113.3 529.7 -114.8 529.1 -112.6 530.4 -114.3 530.1 -112.2 531.1 -113.9 531.3 -113.9 531.7 -111.5 531.9 -113.9"/>
          <polyline class="st3" points="530.6 -116.9 531.3 -116.2 531.3 -115.8 530.8 -115.3 527.7 -117.3"/>
          <polyline class="st3" points="524.8 -133.1 526.2 -128.3 525.9 -126.8 525.9 -125.9 524.3 -127.1 523.9 -128.3 522.8 -127.4"/>
          <polyline class="st3" points="526.2 -128.3 526.7 -127.8 528 -129.3 526.7 -132"/>
          <polyline class="st3" points="527.8 -127 527.6 -124.4 529.3 -122.4 529.6 -121.2 527.1 -119.6"/>
          <polyline class="st3" points="524.1 -122.1 524.3 -121.1 526.6 -119.8"/>
          <polyline class="st3" points="529.3 -122.4 528.4 -122.8 527.7 -122.6 527 -122.1 528.1 -121.2 529.1 -121.4 529.6 -121.2"/>
          <polyline class="st3" points="530 -116.7 530.2 -121.9 529.6 -123.4 527.6 -125.1"/>
          <polyline class="st3" points="526.7 -112.6 527.4 -114.1 526.7 -113.9 527.6 -116 526.5 -115 527.3 -116.5 527.7 -117.3 523.4 -118.9 524.7 -119.7 526.6 -119.8 528.6 -118.8 530 -116.7 530.6 -116.9 531.1 -117.7 531.7 -117.9 532.1 -117.9 532.7 -117.7 533.2 -116.9"/>
          <polyline class="st3" points="524.4 -122.7 529.3 -129 526.6 -132.1 524.8 -133.1 523.4 -131.4 522.8 -127.4 524.4 -122.7 522.6 -118.3 524.6 -117.5 523.9 -116.5 524.6 -116.5 524.1 -115.4 524.6 -115.5 524.2 -114.6 524.4 -114.7 524.1 -112.6"/>
          <polyline class="st3" points="531.9 -113.9 532.2 -113.9 533.7 -112.2 532.9 -114.3 534.2 -112.6 533.6 -114.8 534.9 -113.3 534.4 -115.4 535.2 -113.9 534.7 -115.7 535.4 -114.6 535.2 -115.8 536 -116.5"/>
          <line class="st3" x1="533" y1="-115.3" x2="535.5" y2="-117.3"/>
          <polyline class="st3" points="538.4 -133.1 537 -128.3 537.4 -126.8 537.3 -125.9 539 -127.1 539.4 -128.3 540.4 -127.4"/>
          <polyline class="st3" points="537 -128.3 536.6 -127.8 535.3 -129.3 536.6 -132"/>
          <polyline class="st3" points="535.5 -127 535.7 -124.4 533.9 -122.4 533.7 -121.2 536.1 -119.6"/>
          <polyline class="st3" points="539.1 -122.1 539 -121.1 536.7 -119.8"/>
          <polyline class="st3" points="533.9 -122.4 534.9 -122.8 535.5 -122.6 536.3 -122.1 535.2 -121.2 534.2 -121.4 533.7 -121.2"/>
          <polyline class="st3" points="533.2 -116.9 533 -122.2 533.7 -123.4 535.6 -125.1"/>
          <polyline class="st3" points="539.2 -112.6 538.8 -114.7 539.1 -114.6 538.7 -115.5 539.1 -115.4 538.6 -116.5 539.4 -116.5 538.7 -117.5 540.6 -118.3 538.9 -122.7 540.5 -127.4 539.9 -131.4 538.4 -133.1 536.7 -132.1 533.9 -129 538.9 -122.7"/>
          <polyline class="st3" points="533.2 -116.9 533.8 -116.7 534.7 -118.8 536.7 -119.8 538.5 -119.7 539.8 -118.9 535.5 -117.3 536 -116.5 536.8 -115 535.7 -116 536.5 -113.9 535.9 -114.1 536.6 -112.6"/>
          <path class="st3" d="M531.3-117.2"/>
          <path class="st3" d="M533-115.4"/>
          <path class="st3" d="M530.8-115.3"/>
          <path class="st3" d="M533.2-120"/>
          <polyline class="st3" points="530.1 -120.2 530.8 -120.8 531.6 -121 532.4 -120.8 533.1 -120.2"/>
          <line class="st3" x1="529.3" y1="-129" x2="534" y2="-129"/>
          <path class="st3" d="M530.7-115.3c.3.1.8.3,1.2.4l1.1-.5"/>
          <path class="st3" d="M530-116.7"/>
          <path class="st3" d="M531.9-114.2"/>
          <path class="st3" d="M531.9-117.9"/>
          <path class="st3" d="M533.2-116.9"/>
          <polyline class="st3" points="533.2 -116.9 532.4 -116.2 532.4 -115.9 532.9 -115.3"/>
        </g>
        <polyline class="st3" points="526.2 -128.2 526.6 -127.8 527.9 -129.3 526.6 -132 524.9 -133.1 526.2 -128.2 525.8 -126.8 525.9 -125.9 524.2 -127.1 523.8 -128.3 522.8 -127.4"/>
        <line class="st3" x1="533.9" y1="-129" x2="529.3" y2="-129"/>
        <polyline class="st3" points="540.4 -127.4 539.3 -128.3 538.9 -127.1 537.3 -125.9 537.3 -126.8 537 -128.3 538.3 -133 536.5 -132 535.2 -129.3 536.5 -127.8 537 -128.3"/>
        <polyline class="st3" points="529.3 -122.4 528.3 -122.8 527.6 -122.6 526.9 -122.1 528 -121.2 529 -121.4 529.5 -121.2 530.1 -120.2 530.7 -120.8 531.5 -121 532.3 -120.8 533 -120.2 533.1 -120 533.6 -121.2 534.1 -121.4 535.1 -121.2 536.2 -122.1 535.5 -122.6 534.8 -122.8 533.9 -122.4"/>
        <path class="st3" d="M533.1-116.9"/>
        <polyline class="st3" points="530.8 -115.3 531.9 -114.9 533 -115.3 535.5 -117.3 535.9 -116.5 535.2 -115.8 535.4 -114.6 534.6 -115.7 535.1 -113.9 534.3 -115.4 534.8 -113.3 533.5 -114.8 534.1 -112.6 532.8 -114.3 533.6 -112.2 532.1 -113.9 531.9 -113.9 531.6 -111.5 531.3 -113.9 531 -113.9 530.1 -112.2 530.3 -114.3 529 -112.6 529.6 -114.8 528.3 -113.3 528.8 -115.4 528 -113.9 528.5 -115.7 527.8 -114.6 528 -115.8 527.2 -116.5 527.7 -117.3 530.8 -115.3 531.3 -115.8 531.3 -116.2 530.6 -116.9"/>
        <polyline class="st3" points="539.1 -112.6 538.8 -114.7 539 -114.6 538.6 -115.5 539.1 -115.4 538.6 -116.5 539.3 -116.5 538.6 -117.5 540.6 -118.3 538.8 -122.7 540.4 -127.4 539.8 -131.4 538.4 -133.1 536.6 -132.1 533.9 -129 538.8 -122.7 539.1 -122.1 538.9 -121.1 536.6 -119.8 536.1 -119.6 533.6 -121.2 533.9 -122.4 535.6 -124.4 535.4 -127 535.6 -125.1 533.6 -123.4 532.9 -122.2 533.1 -116.9 532.3 -116.2 532.3 -115.9 533 -115.3"/>
        <polyline class="st3" points="533.1 -116.9 533.7 -116.7 534.6 -118.8 536.6 -119.8 538.4 -119.7 539.8 -118.9 535.5 -117.3 535.9 -116.5 536.7 -115 535.6 -116 536.5 -113.9 535.8 -114.1 536.5 -112.6"/>
        <polyline class="st3" points="524 -112.6 524.4 -114.7 524.1 -114.6 524.5 -115.5 524.1 -115.4 524.6 -116.5 523.8 -116.5 524.5 -117.5 522.6 -118.3 524.3 -122.7 522.7 -127.4 523.3 -131.4 524.8 -133.1 526.5 -132.1 529.3 -129 524.3 -122.7 524.1 -122.1 524.2 -121.1 526.5 -119.8 527.1 -119.6 529.5 -121.2 529.3 -122.4 527.5 -124.4 527.7 -127 527.5 -125.1 529.5 -123.4 530.1 -121.9 529.9 -116.7"/>
        <polyline class="st3" points="533.1 -116.9 532.7 -117.7 532.1 -117.9 531.6 -117.9 531 -117.7 530.6 -116.9 529.9 -116.7 528.5 -118.8 526.5 -119.8 524.7 -119.7 523.4 -118.9 527.7 -117.3 527.2 -116.5 526.4 -115 527.5 -116 526.7 -113.9 527.3 -114.1 526.6 -112.6"/>
      </g>
    </g>
    <g>
      <text class="st22" transform="translate(454.7 -82.7)"><tspan x="0" y="0">Revontulet</tspan></text>
      <g>
        <line class="st2" x1="560.3" y1="-74.7" x2="609.4" y2="-74.7"/>
        <line class="st1" x1="455.3" y1="-74.7" x2="504.5" y2="-74.7"/>
      </g>
      <text class="st23" transform="translate(505.6 -72.6)"><tspan x="0" y="0">Intelligence</tspan></text>
    </g>
    <g>
      <g class="st26">
        <polyline class="st12" points="40.9 128.2 46.5 133.6 44.8 142.3 50.7 134.5 46.7 147.4 52.6 136.5 49 152.2 58.7 141 54.2 157.4 64.2 144.3 62.3 160 69.1 147.3 71.1 147.5 73.7 165.5 75.8 147.5"/>
        <polyline class="st12" points="66.1 125.4 71.3 130.8 71.3 133.2 67.1 137.6 44.1 122.5"/>
        <polyline class="st12" points="22.4 5.2 32.8 41.1 30.2 51.9 30.6 58.8 18 49.7 15.1 40.6 7.3 47.5"/>
        <polyline class="st12" points="32.8 41.1 36.2 44.3 46.1 33.5 36.2 13.3"/>
        <polyline class="st12" points="44.7 50.2 42.8 69.5 56.2 84.8 57.9 93.2 39.6 105.6"/>
        <polyline class="st12" points="17.1 86.6 18.1 94.2 35.8 103.7"/>
        <polyline class="st12" points="56.2 84.8 49 81.7 43.9 83.4 38.4 87 46.7 93.7 54.4 92.1 57.9 93.2"/>
        <polyline class="st12" points="61.2 126.5 62.6 88.6 57.9 77.1 43.3 64.6"/>
        <polyline class="st12" points="36.1 156.9 41.7 146.4 36.6 147.8 42.8 132.3 34.8 139.1 40.9 128.2 44.1 122.5 11.8 110.4 21.7 104.2 35.8 103.7 50.8 111.3 61.2 126.5 66.1 125.4 69.5 119.3 73.9 117.6 77.3 117.6 81.7 119.3 85.1 125.5"/>
        <polyline class="st12" points="19.1 82 56.2 35.8 35.8 12.8 22.4 5.2 11.6 17.9 7 47.3 19.1 82 5.7 115 20.3 120.7 15.3 128.5 20.8 128.2 17.1 136.5 20.7 135.4 17.4 142.2 19.4 141.7 16.6 156.9"/>
        <polyline class="st12" points="75.5 147.9 77.9 147.3 89.1 160 82.7 144.3 92.8 157.4 88.3 141 97.9 152.2 94.4 136.5 100.3 147.4 96.3 134.5 102.1 142.3 100.4 133.6 106.1 128.2"/>
        <line class="st12" x1="83.6" y1="137" x2="102.9" y2="122.5"/>
        <polyline class="st12" points="124.5 5.2 114.2 41.1 116.7 51.9 116.4 58.8 129 49.7 131.8 40.6 139.6 47.5"/>
        <polyline class="st12" points="114.2 41.1 110.7 44.3 100.9 33.5 110.8 13.3"/>
        <polyline class="st12" points="102.3 50.2 104.1 69.5 90.8 84.8 89.1 93.2 107.4 105.6"/>
        <polyline class="st12" points="129.9 86.6 128.9 94.2 111.2 103.7"/>
        <polyline class="st12" points="90.8 84.8 98 81.7 102.9 83.3 108.5 87 100.2 93.7 92.5 92.1 89.1 93.2"/>
        <polyline class="st12" points="85.3 125.4 83.6 86.1 89 77.1 103.7 64.6"/>
        <polyline class="st12" points="130.3 156.9 127.6 141.7 129.5 142.2 126.3 135.4 129.9 136.5 126.2 128.2 131.6 128.5 126.7 120.7 141.2 115 127.9 82 140 47.3 135.3 17.9 124.5 5.2 111.2 12.8 90.8 35.8 127.9 82"/>
        <polyline class="st12" points="85.3 125.4 89.6 127 96.2 111.3 111.2 103.7 125.2 104.2 135.1 110.4 102.9 122.5 106.1 128.2 112.1 139.1 104.1 132.3 110.4 147.8 105.3 146.4 110.9 156.9"/>
        <path class="st12" d="M71.1,123.4"/>
        <path class="st12" d="M84,136.3"/>
        <path class="st12" d="M67.1,137.6"/>
        <path class="st12" d="M85,102.1"/>
        <polyline class="st12" points="62.2 101.2 66.9 96.3 73.2 94.9 79 96.2 84.3 101.2"/>
        <line class="st12" x1="56.2" y1="35.8" x2="91" y2="35.8"/>
        <path class="st12" d="M66.8,137.4c2.4,1,5.7,2.1,8.7,3l8.2-3.4"/>
        <path class="st12" d="M61.2,127"/>
        <path class="st12" d="M75.2,145.3"/>
        <path class="st12" d="M75.2,118.3"/>
        <path class="st12" d="M85.3,125.3"/>
        <polyline class="st12" points="85.3 125.4 79.1 130.4 79.1 132.9 83.3 137.2"/>
      </g>
      <polyline class="st12" points="32.9 41.5 35.7 44.3 45.5 33.5 35.6 13.3 22.5 5.6 32.9 41.5 29.7 51.9 30 58.8 17.4 49.7 14.6 40.6 6.8 47.5"/>
      <line class="st12" x1="90.2" y1="35.8" x2="55.7" y2="35.8"/>
      <polyline class="st12" points="139.1 47.5 131.3 40.6 128.5 49.7 115.9 58.8 116.2 51.9 113.6 41.1 123.2 5.7 110.2 13.3 100.4 33.5 110.2 44.3 113.6 41.1"/>
      <polyline class="st12" points="55.7 84.8 48.5 81.7 43.4 83.4 37.9 87 46.2 93.7 53.9 92.1 57.4 93.2 61.6 101.2 66.3 96.3 72.7 94.9 78.5 96.2 83.7 101.2 84.4 102.1 88.5 93.2 92 92.1 99.7 93.7 108 87 102.3 83.3 97.4 81.7 90.2 84.8"/>
      <path class="st12" d="M84.7,125.3"/>
      <polyline class="st12" points="67.1 137.6 75.3 140.5 83.6 137 102.3 122.5 105.5 128.2 99.9 133.6 101.6 142.3 95.8 134.5 99.8 147.4 93.8 136.5 97.4 152.2 87.7 141 92.2 157.4 82.2 144.3 88.5 160 77.3 147.3 75.3 147.5 73.2 165.5 70.6 147.5 68.6 147.3 61.7 160 63.7 144.3 53.6 157.4 58.2 141 48.5 152.2 52.1 136.5 46.1 147.4 50.1 134.5 44.3 142.3 46 133.6 40.3 128.2 43.6 122.5 67.1 137.6 70.7 133.2 70.7 130.8 65.5 125.4"/>
      <polyline class="st12" points="129.8 156.9 127.1 141.7 129 142.2 125.8 135.4 129.4 136.5 125.6 128.2 131.1 128.5 126.2 120.7 140.7 115 127.4 82 139.5 47.3 134.8 17.9 124 5.2 110.7 12.8 90.2 35.8 127.4 82 129.4 86.6 128.3 94.2 110.7 103.7 106.9 105.6 88.5 93.2 90.2 84.8 103.6 69.5 101.8 50.2 103.1 64.6 88.5 77.1 83.1 86.1 84.7 125.4 78.6 130.4 78.6 132.9 83.6 137"/>
      <polyline class="st12" points="84.7 125.4 89 127 95.7 111.3 110.7 103.7 124.7 104.2 134.6 110.4 102.3 122.5 105.5 128.2 111.6 139.1 103.6 132.3 109.8 147.8 104.8 146.4 110.4 156.9"/>
      <polyline class="st12" points="16.1 156.9 18.8 141.7 16.9 142.2 20.1 135.4 16.5 136.5 20.2 128.2 14.8 128.5 19.7 120.7 5.2 115 18.5 82 6.4 47.3 11.1 17.9 21.9 5.2 35.2 12.8 55.7 35.8 18.5 82 16.5 86.6 17.6 94.2 35.2 103.7 39 105.6 57.4 93.2 55.7 84.8 42.3 69.5 44.1 50.2 42.8 64.6 57.4 77.1 62.1 88.6 60.7 126.5"/>
      <polyline class="st12" points="84.7 125.3 81.2 119.3 76.8 117.6 73.3 117.6 68.9 119.3 65.5 125.4 60.7 126.5 50.2 111.3 35.2 103.7 21.2 104.2 11.3 110.4 43.6 122.5 40.3 128.2 34.3 139.1 42.3 132.3 36.1 147.8 41.1 146.4 35.5 156.9"/>
    </g>
  </g>
</svg>