<?xml version="1.0" encoding="UTF-8"?>
<svg xmlns="http://www.w3.org/2000/svg" version="1.1" xmlns:xlink="http://www.w3.org/1999/xlink" viewBox="0 0 155.25 37.15">
  <!-- Generator: Adobe Illustrator 29.1.0, SVG Export Plug-In . SVG Version: 2.1.0 Build 142)  -->
  <defs>
    <style>
      .st0 {
        stroke: url(#linear-gradient4);
      }

      .st0, .st1, .st2, .st3, .st4, .st5, .st6, .st7, .st8, .st9, .st10, .st11, .st12, .st13, .st14, .st15, .st16 {
        fill: none;
        stroke-miterlimit: 10;
      }

      .st0, .st1, .st7, .st10, .st15, .st16 {
        stroke-width: .4px;
      }

      .st1 {
        stroke: url(#linear-gradient5);
      }

      .st17, .st18, .st19, .st20, .st21, .st22, .st23 {
        font-family: TiroGurmukhi-Regular, 'Tiro Gurmukhi';
      }

      .st17, .st20 {
        fill: #93d5de;
      }

      .st17, .st21, .st23 {
        font-size: 10.01px;
      }

      .st2 {
        stroke: url(#linear-gradient13);
      }

      .st2, .st4, .st5, .st6, .st8, .st9, .st11, .st13 {
        stroke-width: .1px;
      }

      .st3 {
        stroke-width: .2px;
      }

      .st3, .st12 {
        stroke: #93d5de;
      }

      .st4 {
        stroke: url(#linear-gradient10);
      }

      .st5 {
        stroke: url(#linear-gradient9);
      }

      .st18, .st20 {
        font-size: 13.51px;
      }

      .st18, .st23 {
        fill: #fff;
      }

      .st6 {
        stroke: url(#linear-gradient11);
      }

      .st7 {
        stroke: url(#linear-gradient3);
      }

      .st8 {
        stroke: url(#linear-gradient8);
      }

      .st19 {
        font-size: 42.17px;
      }

      .st19, .st22 {
        fill: #f16632;
      }

      .st9 {
        stroke: url(#linear-gradient7);
      }

      .st10 {
        stroke: url(#linear-gradient2);
      }

      .st24 {
        fill: #152245;
      }

      .st11 {
        stroke: url(#linear-gradient6);
      }

      .st25 {
        fill: #172247;
      }

      .st25, .st26 {
        display: none;
      }

      .st12 {
        stroke-width: .8px;
      }

      .st13 {
        stroke: url(#linear-gradient12);
      }

      .st14 {
        stroke: #172247;
        stroke-width: .5px;
      }

      .st21 {
        fill: #93d5de;
      }

      .st22 {
        font-size: 31.24px;
      }

      .st15 {
        stroke: url(#linear-gradient1);
      }

      .st16 {
        stroke: url(#linear-gradient);
      }
    </style>
    <linearGradient id="linear-gradient" x1="-326.07" y1="45.92" x2="-259.74" y2="45.92" gradientUnits="userSpaceOnUse">
      <stop offset="0" stop-color="#0f81ba"/>
      <stop offset="1" stop-color="#24b9a8"/>
    </linearGradient>
    <linearGradient id="linear-gradient1" x2="-326.07" xlink:href="#linear-gradient"/>
    <linearGradient id="linear-gradient2" x1="-467.81" x2="-401.32" xlink:href="#linear-gradient"/>
    <linearGradient id="linear-gradient3" x1="-83.12" x2="-16.79" xlink:href="#linear-gradient"/>
    <linearGradient id="linear-gradient4" x1="-83.12" x2="-83.12" xlink:href="#linear-gradient"/>
    <linearGradient id="linear-gradient5" x1="-224.87" x2="-158.38" xlink:href="#linear-gradient"/>
    <linearGradient id="linear-gradient6" x1="105.44" y1="-138.97" x2="154.58" y2="-138.97" xlink:href="#linear-gradient"/>
    <linearGradient id="linear-gradient7" x1=".43" y1="-138.97" x2="49.69" y2="-138.97" xlink:href="#linear-gradient"/>
    <linearGradient id="linear-gradient8" x1="105.73" y1="-74.81" x2="154.87" y2="-74.81" xlink:href="#linear-gradient"/>
    <linearGradient id="linear-gradient9" x1=".72" y1="-74.81" x2="49.98" y2="-74.81" xlink:href="#linear-gradient"/>
    <linearGradient id="linear-gradient10" x1="105.44" y1="-32" x2="154.58" y2="-32" xlink:href="#linear-gradient"/>
    <linearGradient id="linear-gradient11" x1=".43" y1="-32" x2="49.69" y2="-32" xlink:href="#linear-gradient"/>
    <linearGradient id="linear-gradient12" x1="105.73" y1="32.16" x2="154.87" y2="32.16" xlink:href="#linear-gradient"/>
    <linearGradient id="linear-gradient13" x1=".72" y1="32.16" x2="49.98" y2="32.16" xlink:href="#linear-gradient"/>
  </defs>
  <g id="Layer_1">
    <rect class="st24" x="-485.89" y="-171.38" width="240.94" height="243.77"/>
    <g class="st26">
      <g class="st26">
        <polyline class="st12" points="-397.5 -6.93 -391.92 -1.65 -393.58 7.03 -387.79 -.77 -391.77 12.05 -385.88 1.25 -389.42 16.82 -379.83 5.75 -384.3 21.95 -374.34 8.95 -376.27 24.58 -369.5 12 -367.48 12.15 -364.91 30.05 -362.83 12.15"/>
        <polyline class="st12" points="-372.5 -9.72 -367.35 -4.45 -367.35 -2.02 -371.49 2.31 -394.32 -12.65"/>
        <polyline class="st12" points="-415.8 -129.04 -405.54 -93.44 -408.06 -82.72 -407.74 -75.84 -420.24 -84.9 -423.05 -93.93 -430.81 -87.05"/>
        <polyline class="st12" points="-405.54 -93.44 -402.13 -90.24 -392.35 -100.96 -402.17 -121.04"/>
        <polyline class="st12" points="-393.74 -84.43 -395.59 -65.19 -382.3 -50.04 -380.61 -41.75 -398.8 -29.41"/>
        <polyline class="st12" points="-421.14 -48.24 -420.12 -40.7 -402.59 -31.32"/>
        <polyline class="st12" points="-382.3 -50.04 -389.44 -53.15 -394.52 -51.45 -399.93 -47.84 -391.69 -41.18 -384.08 -42.77 -380.61 -41.75"/>
        <polyline class="st12" points="-377.29 -8.65 -375.92 -46.24 -380.57 -57.65 -395.11 -70.15"/>
        <polyline class="st12" points="-402.28 21.55 -396.72 11.08 -401.77 12.51 -395.57 -2.95 -403.53 3.88 -397.5 -6.93 -394.32 -12.65 -426.32 -24.62 -416.53 -30.76 -402.59 -31.32 -387.69 -23.8 -377.29 -8.65 -372.5 -9.72 -369.13 -15.8 -364.77 -17.52 -361.35 -17.5 -356.98 -15.79 -353.61 -9.71"/>
        <polyline class="st12" points="-419.16 -52.84 -382.3 -98.64 -402.59 -121.5 -415.8 -129.04 -426.54 -116.4 -431.17 -87.23 -419.16 -52.84 -432.38 -20.05 -417.95 -14.45 -422.86 -6.65 -417.46 -7 -421.14 1.25 -417.58 .17 -420.76 6.95 -418.86 6.37 -421.56 21.55"/>
        <polyline class="st12" points="-363.12 12.54 -360.81 12 -349.68 24.58 -355.96 8.95 -346 21.95 -350.48 5.75 -340.89 16.82 -344.43 1.25 -338.54 12.05 -342.52 -.77 -336.73 7.03 -338.39 -1.65 -332.8 -6.93"/>
        <line class="st12" x1="-355.14" y1="1.77" x2="-335.99" y2="-12.65"/>
        <polyline class="st12" points="-314.5 -129.04 -324.77 -93.44 -322.24 -82.72 -322.57 -75.84 -310.07 -84.9 -307.25 -93.93 -299.49 -87.05"/>
        <polyline class="st12" points="-324.77 -93.44 -328.18 -90.24 -337.96 -100.96 -328.13 -121.04"/>
        <polyline class="st12" points="-336.57 -84.43 -334.71 -65.19 -348 -50.04 -349.69 -41.75 -331.51 -29.41"/>
        <polyline class="st12" points="-309.16 -48.24 -310.18 -40.7 -327.72 -31.32"/>
        <polyline class="st12" points="-348 -50.04 -340.87 -53.15 -335.99 -51.55 -330.38 -47.84 -338.61 -41.18 -346.23 -42.77 -349.69 -41.75"/>
        <polyline class="st12" points="-353.46 -9.72 -355.1 -48.76 -349.73 -57.65 -335.19 -70.15"/>
        <polyline class="st12" points="-308.75 21.55 -311.44 6.37 -309.55 6.95 -312.73 .17 -309.16 1.25 -312.85 -7 -307.44 -6.65 -312.35 -14.45 -297.93 -20.05 -311.15 -52.84 -299.13 -87.23 -303.76 -116.4 -314.5 -129.04 -327.72 -121.5 -348 -98.64 -311.15 -52.84"/>
        <polyline class="st12" points="-353.46 -9.72 -349.18 -8.13 -342.62 -23.8 -327.72 -31.32 -313.78 -30.76 -303.99 -24.62 -335.99 -12.65 -332.8 -6.93 -326.78 3.88 -334.74 -2.95 -328.54 12.51 -333.58 11.08 -328.02 21.55"/>
        <path class="st12" d="M-367.5-11.75"/>
        <path class="st12" d="M-354.74,1.03"/>
        <path class="st12" d="M-371.49,2.31"/>
        <path class="st12" d="M-353.74-32.91"/>
        <polyline class="st12" points="-376.38 -33.77 -371.72 -38.68 -365.41 -39.99 -359.64 -38.77 -354.44 -33.77"/>
        <line class="st12" x1="-382.3" y1="-98.64" x2="-347.73" y2="-98.64"/>
        <path class="st12" d="M-371.76,2.13c2.43.98,5.65,2.08,8.68,2.99l8.11-3.42"/>
        <path class="st12" d="M-377.38-8.13"/>
        <path class="st12" d="M-363.46,10.03"/>
        <path class="st12" d="M-363.46-16.86"/>
        <path class="st12" d="M-353.45-9.88"/>
        <polyline class="st12" points="-353.46 -9.72 -359.56 -4.78 -359.56 -2.35 -355.43 1.98"/>
      </g>
      <polyline class="st12" points="-405.47 -93.06 -402.66 -90.24 -392.88 -100.96 -402.7 -121.04 -415.74 -128.66 -405.47 -93.06 -408.59 -82.72 -408.27 -75.84 -420.77 -84.9 -423.58 -93.93 -431.34 -87.05"/>
      <line class="st12" x1="-348.53" y1="-98.64" x2="-382.83" y2="-98.64"/>
      <polyline class="st12" points="-300.02 -87.05 -307.78 -93.93 -310.6 -84.9 -323.1 -75.84 -322.77 -82.72 -325.3 -93.44 -315.77 -128.6 -328.66 -121.04 -338.49 -100.96 -328.7 -90.24 -325.3 -93.44"/>
      <polyline class="st12" points="-382.83 -50.04 -389.97 -53.15 -395.05 -51.45 -400.46 -47.84 -392.22 -41.18 -384.61 -42.77 -381.14 -41.75 -376.91 -33.77 -372.24 -38.68 -365.94 -39.99 -360.17 -38.77 -354.97 -33.77 -354.27 -32.91 -350.22 -41.75 -346.76 -42.77 -339.14 -41.18 -330.91 -47.84 -336.52 -51.55 -341.39 -53.15 -348.53 -50.04"/>
      <path class="st12" d="M-353.98-9.88"/>
      <polyline class="st12" points="-371.49 2.31 -363.36 5.24 -355.14 1.77 -336.52 -12.65 -333.33 -6.93 -338.92 -1.65 -337.26 7.03 -343.05 -.77 -339.07 12.05 -344.96 1.25 -341.42 16.82 -351.01 5.75 -346.53 21.95 -356.49 8.95 -350.21 24.58 -361.33 12 -363.36 12.15 -365.43 30.05 -368.01 12.15 -370.03 12 -376.8 24.58 -374.87 8.95 -384.83 21.95 -380.36 5.75 -389.95 16.82 -386.4 1.25 -392.3 12.05 -388.32 -.77 -394.11 7.03 -392.44 -1.65 -398.03 -6.93 -394.85 -12.65 -371.49 2.31 -367.88 -2.02 -367.88 -4.45 -373.03 -9.72"/>
      <polyline class="st12" points="-309.27 21.55 -311.97 6.37 -310.08 6.95 -313.25 .17 -309.69 1.25 -313.38 -7 -307.97 -6.65 -312.88 -14.45 -298.46 -20.05 -311.68 -52.84 -299.66 -87.23 -304.29 -116.4 -315.03 -129.04 -328.25 -121.5 -348.53 -98.64 -311.68 -52.84 -309.69 -48.24 -310.71 -40.7 -328.25 -31.32 -332.03 -29.41 -350.22 -41.75 -348.53 -50.04 -335.24 -65.19 -337.1 -84.43 -335.72 -70.15 -350.26 -57.65 -355.63 -48.76 -353.99 -9.72 -360.09 -4.78 -360.09 -2.35 -355.14 1.77"/>
      <polyline class="st12" points="-353.99 -9.72 -349.71 -8.13 -343.14 -23.8 -328.25 -31.32 -314.31 -30.76 -304.52 -24.62 -336.52 -12.65 -333.33 -6.93 -327.31 3.88 -335.27 -2.95 -329.07 12.51 -334.11 11.08 -328.55 21.55"/>
      <polyline class="st12" points="-422.09 21.55 -419.39 6.37 -421.29 6.95 -418.11 .17 -421.67 1.25 -417.98 -7 -423.39 -6.65 -418.48 -14.45 -432.9 -20.05 -419.68 -52.84 -431.7 -87.23 -427.07 -116.4 -416.33 -129.04 -403.11 -121.5 -382.83 -98.64 -419.68 -52.84 -421.67 -48.24 -420.65 -40.7 -403.11 -31.32 -399.33 -29.41 -381.14 -41.75 -382.83 -50.04 -396.12 -65.19 -394.27 -84.43 -395.64 -70.15 -381.1 -57.65 -376.45 -46.24 -377.82 -8.65"/>
      <polyline class="st12" points="-353.98 -9.88 -357.51 -15.79 -361.87 -17.5 -365.3 -17.52 -369.66 -15.8 -373.03 -9.72 -377.82 -8.65 -388.22 -23.8 -403.11 -31.32 -417.06 -30.76 -426.85 -24.62 -394.85 -12.65 -398.03 -6.93 -404.06 3.88 -396.09 -2.95 -402.3 12.51 -397.25 11.08 -402.81 21.55"/>
    </g>
    <rect class="st24" y="-64.41" width="155.25" height="61.32"/>
    <rect class="st24" width="155.25" height="37.15"/>
  </g>
  <g id="Layer_2">
    <g class="st26">
      <polyline class="st14" points="-482.49 234.74 -478.98 238.06 -480.02 243.51 -476.39 238.61 -478.89 246.66 -475.19 239.88 -477.41 249.65 -471.39 242.71 -474.2 252.87 -467.95 244.71 -469.16 254.52 -464.91 246.63 -463.64 246.72 -462.02 257.96 -460.72 246.72"/>
      <polyline class="st14" points="-466.79 232.99 -463.56 236.3 -463.56 237.83 -466.15 240.54 -480.49 231.15"/>
      <polyline class="st14" points="-493.98 158.08 -487.53 180.43 -489.12 187.16 -488.91 191.48 -496.76 185.8 -498.53 180.12 -503.4 184.44"/>
      <polyline class="st14" points="-487.53 180.43 -485.39 182.44 -479.25 175.71 -485.42 163.11"/>
      <polyline class="st14" points="-480.12 186.09 -481.29 198.17 -472.94 207.68 -471.88 212.88 -483.3 220.63"/>
      <polyline class="st14" points="-497.33 208.81 -496.69 213.54 -485.68 219.43"/>
      <polyline class="st14" points="-472.94 207.68 -477.43 205.73 -480.62 206.8 -484.01 209.06 -478.84 213.24 -474.06 212.25 -471.88 212.88"/>
      <polyline class="st14" points="-469.8 233.66 -468.94 210.06 -471.86 202.9 -480.99 195.05"/>
      <polyline class="st14" points="-485.49 252.62 -482 246.05 -485.16 246.95 -481.27 237.24 -486.27 241.53 -482.49 234.74 -480.49 231.15 -500.58 223.64 -494.43 219.78 -485.68 219.43 -476.33 224.15 -469.8 233.66 -466.79 232.99 -464.68 229.17 -461.94 228.1 -459.79 228.11 -457.05 229.18 -454.93 233"/>
      <polyline class="st14" points="-496.08 205.92 -472.94 177.17 -485.68 162.81 -493.98 158.08 -500.72 166.01 -503.63 184.33 -496.08 205.92 -504.38 226.51 -495.33 230.02 -498.41 234.92 -495.01 234.7 -497.33 239.88 -495.09 239.2 -497.09 243.46 -495.9 243.1 -497.59 252.62"/>
      <polyline class="st14" points="-460.9 246.97 -459.45 246.63 -452.46 254.52 -456.41 244.71 -450.15 252.87 -452.96 242.71 -446.94 249.65 -449.17 239.88 -445.47 246.66 -447.97 238.61 -444.33 243.51 -445.38 238.06 -441.87 234.74"/>
      <line class="st14" x1="-455.89" y1="240.21" x2="-443.87" y2="231.15"/>
      <polyline class="st14" points="-430.38 158.08 -436.82 180.43 -435.24 187.16 -435.44 191.48 -427.59 185.8 -425.83 180.12 -420.95 184.44"/>
      <polyline class="st14" points="-436.82 180.43 -438.96 182.44 -445.1 175.71 -438.94 163.11"/>
      <polyline class="st14" points="-444.23 186.09 -443.07 198.17 -451.41 207.68 -452.47 212.88 -441.05 220.63"/>
      <polyline class="st14" points="-427.03 208.81 -427.67 213.54 -438.68 219.43"/>
      <polyline class="st14" points="-451.41 207.68 -446.93 205.73 -443.87 206.73 -440.35 209.06 -445.51 213.24 -450.3 212.25 -452.47 212.88"/>
      <polyline class="st14" points="-454.84 232.99 -455.87 208.48 -452.5 202.9 -443.37 195.05"/>
      <polyline class="st14" points="-426.76 252.62 -428.46 243.1 -427.27 243.46 -429.26 239.2 -427.03 239.88 -429.34 234.7 -425.95 234.92 -429.03 230.02 -419.97 226.51 -428.27 205.92 -420.73 184.33 -423.63 166.01 -430.38 158.08 -438.68 162.81 -451.41 177.17 -428.27 205.92"/>
      <polyline class="st14" points="-454.84 232.99 -452.15 233.99 -448.03 224.15 -438.68 219.43 -429.92 219.78 -423.78 223.64 -443.87 231.15 -441.87 234.74 -438.09 241.53 -443.08 237.24 -439.19 246.95 -442.36 246.05 -438.87 252.62"/>
      <path class="st14" d="M-463.65,231.72"/>
      <path class="st14" d="M-455.64,239.74"/>
      <path class="st14" d="M-466.15,240.54"/>
      <path class="st14" d="M-455.01,218.43"/>
      <polyline class="st14" points="-469.22 217.9 -466.3 214.81 -462.34 213.99 -458.72 214.75 -455.45 217.9"/>
      <line class="st14" x1="-472.94" y1="177.17" x2="-451.24" y2="177.17"/>
      <path class="st14" d="M-466.33,240.43c1.52.62,3.55,1.31,5.45,1.88l5.09-2.15"/>
      <path class="st14" d="M-469.86,233.99"/>
      <path class="st14" d="M-461.12,245.39"/>
      <path class="st14" d="M-461.12,228.51"/>
      <path class="st14" d="M-454.83,232.89"/>
      <polyline class="st14" points="-454.84 232.99 -458.66 236.1 -458.66 237.62 -456.07 240.34"/>
    </g>
    <text class="st19" transform="translate(-468.5 34.38)"><tspan x="0" y="0">Revontulet</tspan></text>
    <line class="st16" x1="-326.07" y1="45.92" x2="-259.74" y2="45.92"/>
    <path class="st15" d="M-326.07,45.92"/>
    <line class="st10" x1="-467.81" y1="45.92" x2="-401.32" y2="45.92"/>
    <rect class="st25" x="-401.32" y="38.64" width="75.25" height="14.56"/>
    <text class="st18" transform="translate(-399.75 49.22)"><tspan x="0" y="0">Intelligence</tspan></text>
    <g>
      <g class="st26">
        <polyline class="st12" points="-396.11 -37.66 -390.48 -32.33 -392.15 -23.59 -386.32 -31.45 -390.33 -18.53 -384.39 -29.42 -387.96 -13.73 -378.29 -24.88 -382.81 -8.56 -372.77 -21.65 -374.71 -5.91 -367.89 -18.58 -365.85 -18.43 -363.26 -.39 -361.16 -18.43"/>
        <polyline class="st12" points="-370.91 -40.47 -365.73 -35.16 -365.73 -32.71 -369.89 -28.35 -392.9 -43.42"/>
        <polyline class="st12" points="-414.55 -160.69 -404.2 -124.83 -406.75 -114.02 -406.42 -107.09 -419.01 -116.22 -421.85 -125.32 -429.67 -118.39"/>
        <polyline class="st12" points="-404.2 -124.83 -400.77 -121.6 -390.91 -132.41 -400.81 -152.63"/>
        <polyline class="st12" points="-392.31 -115.74 -394.18 -96.36 -380.79 -81.09 -379.08 -72.74 -397.41 -60.31"/>
        <polyline class="st12" points="-419.92 -79.28 -418.9 -71.69 -401.23 -62.23"/>
        <polyline class="st12" points="-380.79 -81.09 -387.98 -84.22 -393.1 -82.51 -398.55 -78.88 -390.25 -72.16 -382.58 -73.76 -379.08 -72.74"/>
        <polyline class="st12" points="-375.74 -39.39 -374.36 -77.27 -379.05 -88.76 -393.7 -101.36"/>
        <polyline class="st12" points="-400.92 -8.96 -395.32 -19.51 -400.4 -18.07 -394.15 -33.64 -402.18 -26.77 -396.11 -37.66 -392.9 -43.42 -425.14 -55.48 -415.28 -61.67 -401.23 -62.23 -386.22 -54.65 -375.74 -39.39 -370.91 -40.47 -367.52 -46.6 -363.12 -48.32 -359.67 -48.31 -355.27 -46.59 -351.88 -40.46"/>
        <polyline class="st12" points="-417.92 -83.92 -380.79 -130.07 -401.23 -153.1 -414.55 -160.69 -425.37 -147.97 -430.03 -118.57 -417.92 -83.92 -431.24 -50.87 -416.71 -45.23 -421.66 -37.37 -416.21 -37.72 -419.92 -29.42 -416.34 -30.5 -419.54 -23.67 -417.63 -24.25 -420.35 -8.96"/>
        <polyline class="st12" points="-361.46 -18.04 -359.13 -18.58 -347.92 -5.91 -354.25 -21.65 -344.21 -8.56 -348.72 -24.88 -339.06 -13.73 -342.63 -29.42 -336.69 -18.53 -340.7 -31.45 -334.87 -23.59 -336.54 -32.33 -330.91 -37.66"/>
        <line class="st12" x1="-353.42" y1="-28.89" x2="-334.12" y2="-43.42"/>
        <polyline class="st12" points="-312.47 -160.69 -322.82 -124.83 -320.27 -114.02 -320.6 -107.09 -308 -116.22 -305.17 -125.32 -297.35 -118.39"/>
        <polyline class="st12" points="-322.82 -124.83 -326.25 -121.6 -336.1 -132.41 -326.21 -152.63"/>
        <polyline class="st12" points="-334.7 -115.74 -332.84 -96.36 -346.23 -81.09 -347.93 -72.74 -329.6 -60.31"/>
        <polyline class="st12" points="-307.09 -79.28 -308.12 -71.69 -325.79 -62.23"/>
        <polyline class="st12" points="-346.23 -81.09 -339.03 -84.22 -334.12 -82.61 -328.47 -78.88 -336.77 -72.16 -344.44 -73.76 -347.93 -72.74"/>
        <polyline class="st12" points="-351.73 -40.47 -353.38 -79.8 -347.97 -88.76 -333.32 -101.36"/>
        <polyline class="st12" points="-306.67 -8.96 -309.39 -24.25 -307.48 -23.67 -310.68 -30.5 -307.09 -29.42 -310.81 -37.72 -305.36 -37.37 -310.3 -45.23 -295.77 -50.87 -309.09 -83.92 -296.98 -118.57 -301.65 -147.97 -312.47 -160.69 -325.79 -153.1 -346.23 -130.07 -309.09 -83.92"/>
        <polyline class="st12" points="-351.73 -40.47 -347.42 -38.86 -340.8 -54.65 -325.79 -62.23 -311.74 -61.67 -301.88 -55.48 -334.12 -43.42 -330.91 -37.66 -324.84 -26.77 -332.86 -33.64 -326.61 -18.07 -331.7 -19.51 -326.09 -8.96"/>
        <path class="st12" d="M-365.88-42.52"/>
        <path class="st12" d="M-353.02-29.64"/>
        <path class="st12" d="M-369.89-28.35"/>
        <path class="st12" d="M-352.01-63.84"/>
        <polyline class="st12" points="-374.82 -64.7 -370.12 -69.65 -363.77 -70.96 -357.96 -69.74 -352.71 -64.7"/>
        <line class="st12" x1="-380.79" y1="-130.07" x2="-345.95" y2="-130.07"/>
        <path class="st12" d="M-370.17-28.53c2.45.99,5.7,2.09,8.75,3.01l8.17-3.45"/>
        <path class="st12" d="M-375.83-38.86"/>
        <path class="st12" d="M-361.81-20.57"/>
        <path class="st12" d="M-361.81-47.66"/>
        <path class="st12" d="M-351.72-40.63"/>
        <polyline class="st12" points="-351.73 -40.47 -357.87 -35.49 -357.87 -33.04 -353.71 -28.68"/>
      </g>
      <polyline class="st12" points="-404.13 -124.45 -401.3 -121.6 -391.44 -132.41 -401.34 -152.63 -414.48 -160.31 -404.13 -124.45 -407.28 -114.02 -406.95 -107.09 -419.55 -116.22 -422.38 -125.32 -430.2 -118.39"/>
      <line class="st12" x1="-346.76" y1="-130.07" x2="-381.32" y2="-130.07"/>
      <polyline class="st12" points="-297.88 -118.39 -305.7 -125.32 -308.54 -116.22 -321.13 -107.09 -320.8 -114.02 -323.35 -124.83 -313.75 -160.25 -326.74 -152.63 -336.64 -132.41 -326.78 -121.6 -323.35 -124.83"/>
      <polyline class="st12" points="-381.32 -81.09 -388.51 -84.22 -393.63 -82.51 -399.08 -78.88 -390.78 -72.16 -383.11 -73.76 -379.62 -72.74 -375.35 -64.7 -370.65 -69.65 -364.3 -70.96 -358.49 -69.74 -353.25 -64.7 -352.54 -63.84 -348.46 -72.74 -344.97 -73.76 -337.3 -72.16 -329 -78.88 -334.65 -82.61 -339.57 -84.22 -346.76 -81.09"/>
      <path class="st12" d="M-352.25-40.63"/>
      <polyline class="st12" points="-369.89 -28.35 -361.71 -25.4 -353.42 -28.89 -334.65 -43.42 -331.44 -37.66 -337.07 -32.33 -335.4 -23.59 -341.23 -31.45 -337.22 -18.53 -343.16 -29.42 -339.59 -13.73 -349.25 -24.88 -344.74 -8.56 -354.78 -21.65 -348.45 -5.91 -359.66 -18.58 -361.7 -18.43 -363.79 -.39 -366.39 -18.43 -368.42 -18.58 -375.25 -5.91 -373.3 -21.65 -383.34 -8.56 -378.83 -24.88 -388.49 -13.73 -384.92 -29.42 -390.86 -18.53 -386.85 -31.45 -392.68 -23.59 -391.01 -32.33 -396.64 -37.66 -393.43 -43.42 -369.89 -28.35 -366.26 -32.71 -366.26 -35.16 -371.44 -40.47"/>
      <polyline class="st12" points="-307.2 -8.96 -309.92 -24.25 -308.01 -23.67 -311.21 -30.5 -307.63 -29.42 -311.34 -37.72 -305.89 -37.37 -310.84 -45.23 -296.3 -50.87 -309.63 -83.92 -297.52 -118.57 -302.18 -147.97 -313 -160.69 -326.32 -153.1 -346.76 -130.07 -309.63 -83.92 -307.63 -79.28 -308.65 -71.69 -326.32 -62.23 -330.14 -60.31 -348.46 -72.74 -346.76 -81.09 -333.37 -96.36 -335.24 -115.74 -333.85 -101.36 -348.5 -88.76 -353.92 -79.8 -352.26 -40.47 -358.4 -35.49 -358.4 -33.04 -353.42 -28.89"/>
      <polyline class="st12" points="-352.26 -40.47 -347.95 -38.86 -341.33 -54.65 -326.32 -62.23 -312.27 -61.67 -302.41 -55.48 -334.65 -43.42 -331.44 -37.66 -325.37 -26.77 -333.4 -33.64 -327.15 -18.07 -332.23 -19.51 -326.63 -8.96"/>
      <polyline class="st12" points="-420.88 -8.96 -418.16 -24.25 -420.07 -23.67 -416.87 -30.5 -420.46 -29.42 -416.74 -37.72 -422.19 -37.37 -417.25 -45.23 -431.78 -50.87 -418.46 -83.92 -430.57 -118.57 -425.9 -147.97 -415.08 -160.69 -401.76 -153.1 -381.32 -130.07 -418.46 -83.92 -420.46 -79.28 -419.43 -71.69 -401.76 -62.23 -397.95 -60.31 -379.62 -72.74 -381.32 -81.09 -394.71 -96.36 -392.85 -115.74 -394.23 -101.36 -379.58 -88.76 -374.89 -77.27 -376.27 -39.39"/>
      <polyline class="st12" points="-352.25 -40.63 -355.8 -46.59 -360.2 -48.31 -363.65 -48.32 -368.05 -46.6 -371.44 -40.47 -376.27 -39.39 -386.75 -54.65 -401.76 -62.23 -415.81 -61.67 -425.67 -55.48 -393.43 -43.42 -396.64 -37.66 -402.71 -26.77 -394.69 -33.64 -400.94 -18.07 -395.85 -19.51 -401.46 -8.96"/>
    </g>
    <text class="st19" transform="translate(-225.55 34.38)"><tspan x="0" y="0">Revontulet</tspan></text>
    <line class="st7" x1="-83.12" y1="45.92" x2="-16.79" y2="45.92"/>
    <path class="st0" d="M-83.12,45.92"/>
    <line class="st1" x1="-224.87" y1="45.92" x2="-158.38" y2="45.92"/>
    <text class="st20" transform="translate(-156.8 49.22)"><tspan x="0" y="0">Intelligence</tspan></text>
    <g>
      <g class="st26">
        <polyline class="st12" points="-153.16 -37.66 -147.53 -32.33 -149.21 -23.59 -143.37 -31.45 -147.38 -18.53 -141.44 -29.42 -145.01 -13.73 -135.35 -24.88 -139.86 -8.56 -129.83 -21.65 -131.77 -5.91 -124.94 -18.58 -122.91 -18.43 -120.31 -.39 -118.22 -18.43"/>
        <polyline class="st12" points="-127.97 -40.47 -122.78 -35.16 -122.78 -32.71 -126.94 -28.35 -149.95 -43.42"/>
        <polyline class="st12" points="-171.6 -160.69 -161.25 -124.83 -163.8 -114.02 -163.47 -107.09 -176.07 -116.22 -178.91 -125.32 -186.73 -118.39"/>
        <polyline class="st12" points="-161.25 -124.83 -157.82 -121.6 -147.97 -132.41 -157.86 -152.63"/>
        <polyline class="st12" points="-149.37 -115.74 -151.23 -96.36 -137.84 -81.09 -136.14 -72.74 -154.47 -60.31"/>
        <polyline class="st12" points="-176.98 -79.28 -175.95 -71.69 -158.28 -62.23"/>
        <polyline class="st12" points="-137.84 -81.09 -145.04 -84.22 -150.16 -82.51 -155.6 -78.88 -147.31 -72.16 -139.63 -73.76 -136.14 -72.74"/>
        <polyline class="st12" points="-132.8 -39.39 -131.41 -77.27 -136.1 -88.76 -150.75 -101.36"/>
        <polyline class="st12" points="-157.98 -8.96 -152.37 -19.51 -157.46 -18.07 -151.21 -33.64 -159.23 -26.77 -153.16 -37.66 -149.95 -43.42 -182.2 -55.48 -172.33 -61.67 -158.28 -62.23 -143.27 -54.65 -132.8 -39.39 -127.97 -40.47 -124.57 -46.6 -120.18 -48.32 -116.73 -48.31 -112.33 -46.59 -108.93 -40.46"/>
        <polyline class="st12" points="-174.98 -83.92 -137.84 -130.07 -158.28 -153.1 -171.6 -160.69 -182.42 -147.97 -187.09 -118.57 -174.98 -83.92 -188.3 -50.87 -173.77 -45.23 -178.72 -37.37 -173.27 -37.72 -176.98 -29.42 -173.39 -30.5 -176.59 -23.67 -174.68 -24.25 -177.4 -8.96"/>
        <polyline class="st12" points="-118.51 -18.04 -116.18 -18.58 -104.97 -5.91 -111.3 -21.65 -101.27 -8.56 -105.78 -24.88 -96.11 -13.73 -99.68 -29.42 -93.74 -18.53 -97.75 -31.45 -91.92 -23.59 -93.6 -32.33 -87.97 -37.66"/>
        <line class="st12" x1="-110.48" y1="-28.89" x2="-91.17" y2="-43.42"/>
        <polyline class="st12" points="-69.53 -160.69 -79.87 -124.83 -77.33 -114.02 -77.65 -107.09 -65.06 -116.22 -62.22 -125.32 -54.4 -118.39"/>
        <polyline class="st12" points="-79.87 -124.83 -83.3 -121.6 -93.16 -132.41 -83.26 -152.63"/>
        <polyline class="st12" points="-91.76 -115.74 -89.89 -96.36 -103.28 -81.09 -104.99 -72.74 -86.66 -60.31"/>
        <polyline class="st12" points="-64.15 -79.28 -65.17 -71.69 -82.85 -62.23"/>
        <polyline class="st12" points="-103.28 -81.09 -96.09 -84.22 -91.17 -82.61 -85.52 -78.88 -93.82 -72.16 -101.49 -73.76 -104.99 -72.74"/>
        <polyline class="st12" points="-108.79 -40.47 -110.44 -79.8 -105.03 -88.76 -90.37 -101.36"/>
        <polyline class="st12" points="-63.73 -8.96 -66.44 -24.25 -64.53 -23.67 -67.74 -30.5 -64.15 -29.42 -67.86 -37.72 -62.41 -37.37 -67.36 -45.23 -52.83 -50.87 -66.15 -83.92 -54.04 -118.57 -58.7 -147.97 -69.53 -160.69 -82.85 -153.1 -103.28 -130.07 -66.15 -83.92"/>
        <polyline class="st12" points="-108.79 -40.47 -104.47 -38.86 -97.85 -54.65 -82.85 -62.23 -68.8 -61.67 -58.93 -55.48 -91.17 -43.42 -87.97 -37.66 -81.9 -26.77 -89.92 -33.64 -83.67 -18.07 -88.75 -19.51 -83.15 -8.96"/>
        <path class="st12" d="M-122.93-42.52"/>
        <path class="st12" d="M-110.07-29.64"/>
        <path class="st12" d="M-126.94-28.35"/>
        <path class="st12" d="M-109.06-63.84"/>
        <polyline class="st12" points="-131.87 -64.7 -127.18 -69.65 -120.82 -70.96 -115.01 -69.74 -109.77 -64.7"/>
        <line class="st12" x1="-137.84" y1="-130.07" x2="-103.01" y2="-130.07"/>
        <path class="st12" d="M-127.22-28.53c2.45.99,5.7,2.09,8.75,3.01l8.17-3.45"/>
        <path class="st12" d="M-132.89-38.86"/>
        <path class="st12" d="M-118.86-20.57"/>
        <path class="st12" d="M-118.86-47.66"/>
        <path class="st12" d="M-108.77-40.63"/>
        <polyline class="st12" points="-108.79 -40.47 -114.92 -35.49 -114.92 -33.04 -110.76 -28.68"/>
      </g>
      <polyline class="st12" points="-161.19 -124.45 -158.36 -121.6 -148.5 -132.41 -158.4 -152.63 -171.54 -160.31 -161.19 -124.45 -164.33 -114.02 -164.01 -107.09 -176.6 -116.22 -179.44 -125.32 -187.26 -118.39"/>
      <line class="st12" x1="-103.82" y1="-130.07" x2="-138.38" y2="-130.07"/>
      <polyline class="st12" points="-54.93 -118.39 -62.75 -125.32 -65.59 -116.22 -78.18 -107.09 -77.86 -114.02 -80.4 -124.83 -70.81 -160.25 -83.8 -152.63 -93.69 -132.41 -83.84 -121.6 -80.4 -124.83"/>
      <polyline class="st12" points="-138.38 -81.09 -145.57 -84.22 -150.69 -82.51 -156.14 -78.88 -147.84 -72.16 -140.16 -73.76 -136.67 -72.74 -132.41 -64.7 -127.71 -69.65 -121.35 -70.96 -115.54 -69.74 -110.3 -64.7 -109.59 -63.84 -105.52 -72.74 -102.03 -73.76 -94.35 -72.16 -86.06 -78.88 -91.71 -82.61 -96.62 -84.22 -103.82 -81.09"/>
      <path class="st12" d="M-109.31-40.63"/>
      <polyline class="st12" points="-126.94 -28.35 -118.76 -25.4 -110.48 -28.89 -91.71 -43.42 -88.5 -37.66 -94.13 -32.33 -92.45 -23.59 -98.29 -31.45 -94.28 -18.53 -100.22 -29.42 -96.65 -13.73 -106.31 -24.88 -101.8 -8.56 -111.83 -21.65 -105.51 -5.91 -116.71 -18.58 -118.75 -18.43 -120.85 -.39 -123.44 -18.43 -125.48 -18.58 -132.3 -5.91 -130.36 -21.65 -140.39 -8.56 -135.88 -24.88 -145.55 -13.73 -141.98 -29.42 -147.92 -18.53 -143.9 -31.45 -149.74 -23.59 -148.06 -32.33 -153.69 -37.66 -150.48 -43.42 -126.94 -28.35 -123.31 -32.71 -123.31 -35.16 -128.5 -40.47"/>
      <polyline class="st12" points="-64.26 -8.96 -66.98 -24.25 -65.07 -23.67 -68.27 -30.5 -64.68 -29.42 -68.39 -37.72 -62.94 -37.37 -67.89 -45.23 -53.36 -50.87 -66.68 -83.92 -54.57 -118.57 -59.24 -147.97 -70.06 -160.69 -83.38 -153.1 -103.82 -130.07 -66.68 -83.92 -64.68 -79.28 -65.71 -71.69 -83.38 -62.23 -87.19 -60.31 -105.52 -72.74 -103.82 -81.09 -90.43 -96.36 -92.29 -115.74 -90.91 -101.36 -105.56 -88.76 -110.97 -79.8 -109.32 -40.47 -115.46 -35.49 -115.46 -33.04 -110.48 -28.89"/>
      <polyline class="st12" points="-109.32 -40.47 -105 -38.86 -98.39 -54.65 -83.38 -62.23 -69.33 -61.67 -59.46 -55.48 -91.71 -43.42 -88.5 -37.66 -82.43 -26.77 -90.45 -33.64 -84.2 -18.07 -89.29 -19.51 -83.68 -8.96"/>
      <polyline class="st12" points="-177.93 -8.96 -175.22 -24.25 -177.13 -23.67 -173.92 -30.5 -177.51 -29.42 -173.8 -37.72 -179.25 -37.37 -174.3 -45.23 -188.83 -50.87 -175.51 -83.92 -187.62 -118.57 -182.96 -147.97 -172.13 -160.69 -158.81 -153.1 -138.38 -130.07 -175.51 -83.92 -177.51 -79.28 -176.49 -71.69 -158.81 -62.23 -155 -60.31 -136.67 -72.74 -138.38 -81.09 -151.77 -96.36 -149.9 -115.74 -151.29 -101.36 -136.63 -88.76 -131.95 -77.27 -133.33 -39.39"/>
      <polyline class="st12" points="-109.31 -40.63 -112.86 -46.59 -117.26 -48.31 -120.71 -48.32 -125.11 -46.6 -128.5 -40.47 -133.33 -39.39 -143.8 -54.65 -158.81 -62.23 -172.86 -61.67 -182.73 -55.48 -150.48 -43.42 -153.69 -37.66 -159.76 -26.77 -151.74 -33.64 -157.99 -18.07 -152.91 -19.51 -158.51 -8.96"/>
    </g>
    <g>
      <text class="st22" transform="translate(.08 -146.95)"><tspan x="0" y="0">Revontulet</tspan></text>
      <g>
        <line class="st11" x1="105.44" y1="-138.97" x2="154.58" y2="-138.97"/>
        <line class="st9" x1=".43" y1="-138.97" x2="49.69" y2="-138.97"/>
      </g>
      <text class="st21" transform="translate(51.02 -136.93)"><tspan x="0" y="0">Intelligence</tspan></text>
      <g>
        <g class="st26">
          <polyline class="st3" points="72.77 -116.64 73.51 -115.92 73.29 -114.74 74.07 -115.8 73.53 -114.06 74.32 -115.53 73.85 -113.41 75.13 -114.92 74.53 -112.71 75.87 -114.48 75.61 -112.36 76.52 -114.07 76.79 -114.05 77.13 -111.61 77.41 -114.05"/>
          <polyline class="st3" points="76.12 -117.02 76.81 -116.3 76.81 -115.97 76.25 -115.38 73.19 -117.42"/>
          <polyline class="st3" points="70.31 -133.24 71.69 -128.4 71.35 -126.94 71.39 -126.01 69.72 -127.24 69.34 -128.46 68.3 -127.53"/>
          <polyline class="st3" points="71.69 -128.4 72.15 -127.96 73.46 -129.42 72.14 -132.15"/>
          <polyline class="st3" points="73.27 -127.17 73.02 -124.56 74.8 -122.5 75.03 -121.37 72.59 -119.7"/>
          <polyline class="st3" points="69.6 -122.25 69.73 -121.23 72.08 -119.95"/>
          <polyline class="st3" points="74.8 -122.5 73.85 -122.92 73.17 -122.69 72.44 -122.2 73.54 -121.29 74.57 -121.51 75.03 -121.37"/>
          <polyline class="st3" points="75.47 -116.87 75.66 -121.98 75.03 -123.53 73.09 -125.23"/>
          <polyline class="st3" points="72.13 -112.77 72.87 -114.19 72.19 -114 73.03 -116.1 71.96 -115.17 72.77 -116.64 73.19 -117.42 68.9 -119.04 70.22 -119.88 72.08 -119.95 74.08 -118.93 75.47 -116.87 76.12 -117.02 76.57 -117.85 77.15 -118.08 77.61 -118.08 78.2 -117.84 78.65 -117.02"/>
          <polyline class="st3" points="69.86 -122.88 74.8 -129.1 72.08 -132.21 70.31 -133.24 68.87 -131.52 68.25 -127.55 69.86 -122.88 68.09 -118.42 70.02 -117.66 69.37 -116.6 70.09 -116.65 69.6 -115.53 70.08 -115.67 69.65 -114.75 69.9 -114.83 69.54 -112.77"/>
          <polyline class="st3" points="77.37 -113.99 77.68 -114.07 79.17 -112.36 78.33 -114.48 79.67 -112.71 79.07 -114.92 80.35 -113.41 79.88 -115.53 80.67 -114.06 80.14 -115.8 80.91 -114.74 80.69 -115.92 81.44 -116.64"/>
          <line class="st3" x1="78.44" y1="-115.46" x2="81.01" y2="-117.42"/>
          <polyline class="st3" points="83.89 -133.24 82.51 -128.4 82.85 -126.94 82.81 -126.01 84.48 -127.24 84.86 -128.46 85.9 -127.53"/>
          <polyline class="st3" points="82.51 -128.4 82.06 -127.96 80.75 -129.42 82.06 -132.15"/>
          <polyline class="st3" points="80.93 -127.17 81.18 -124.56 79.4 -122.5 79.17 -121.37 81.61 -119.7"/>
          <polyline class="st3" points="84.6 -122.25 84.47 -121.23 82.12 -119.95"/>
          <polyline class="st3" points="79.4 -122.5 80.36 -122.92 81.01 -122.7 81.76 -122.2 80.66 -121.29 79.64 -121.51 79.17 -121.37"/>
          <polyline class="st3" points="78.67 -117.02 78.45 -122.32 79.17 -123.53 81.12 -125.23"/>
          <polyline class="st3" points="84.66 -112.77 84.3 -114.83 84.55 -114.75 84.13 -115.67 84.6 -115.53 84.11 -116.65 84.84 -116.6 84.18 -117.66 86.11 -118.42 84.34 -122.88 85.95 -127.55 85.33 -131.52 83.89 -133.24 82.12 -132.21 79.4 -129.1 84.34 -122.88"/>
          <polyline class="st3" points="78.67 -117.02 79.24 -116.8 80.12 -118.93 82.12 -119.95 83.99 -119.88 85.3 -119.04 81.01 -117.42 81.44 -116.64 82.24 -115.17 81.18 -116.1 82.01 -114 81.33 -114.19 82.08 -112.77"/>
          <path class="st3" d="M76.79-117.3"/>
          <path class="st3" d="M78.5-115.56"/>
          <path class="st3" d="M76.25-115.38"/>
          <path class="st3" d="M78.63-120.17"/>
          <polyline class="st3" points="75.6 -120.29 76.22 -120.95 77.07 -121.13 77.84 -120.97 78.54 -120.29"/>
          <line class="st3" x1="74.8" y1="-129.1" x2="79.44" y2="-129.1"/>
          <path class="st3" d="M76.22-115.41c.33.13.76.28,1.16.41l1.09-.46"/>
          <path class="st3" d="M75.46-116.8"/>
          <path class="st3" d="M77.33-114.34"/>
          <path class="st3" d="M77.33-117.99"/>
          <path class="st3" d="M78.67-117.04"/>
          <polyline class="st3" points="78.67 -117.02 77.85 -116.35 77.85 -116.02 78.41 -115.43"/>
        </g>
        <polyline class="st3" points="71.7 -128.35 72.07 -127.96 73.39 -129.42 72.07 -132.15 70.32 -133.18 71.7 -128.35 71.28 -126.94 71.32 -126.01 69.65 -127.24 69.27 -128.46 68.23 -127.53"/>
        <line class="st3" x1="79.33" y1="-129.1" x2="74.73" y2="-129.1"/>
        <polyline class="st3" points="85.83 -127.53 84.79 -128.46 84.41 -127.24 82.74 -126.01 82.78 -126.94 82.44 -128.4 83.72 -133.18 81.99 -132.15 80.68 -129.42 81.99 -127.96 82.44 -128.4"/>
        <polyline class="st3" points="74.73 -122.5 73.78 -122.92 73.09 -122.69 72.37 -122.2 73.47 -121.29 74.49 -121.51 74.96 -121.37 75.53 -120.29 76.15 -120.95 77 -121.13 77.77 -120.97 78.47 -120.29 78.56 -120.17 79.1 -121.37 79.57 -121.51 80.59 -121.29 81.69 -122.2 80.94 -122.7 80.29 -122.92 79.33 -122.5"/>
        <path class="st3" d="M78.6-117.04"/>
        <polyline class="st3" points="76.25 -115.38 77.34 -114.99 78.44 -115.46 80.94 -117.42 81.37 -116.64 80.62 -115.92 80.84 -114.74 80.06 -115.8 80.6 -114.06 79.81 -115.53 80.28 -113.41 79 -114.92 79.6 -112.71 78.26 -114.48 79.1 -112.36 77.61 -114.07 77.34 -114.05 77.06 -111.61 76.72 -114.05 76.45 -114.07 75.54 -112.36 75.8 -114.48 74.46 -112.71 75.06 -114.92 73.78 -113.41 74.25 -115.53 73.46 -114.06 74 -115.8 73.22 -114.74 73.44 -115.92 72.7 -116.64 73.12 -117.42 76.25 -115.38 76.74 -115.97 76.74 -116.3 76.05 -117.02"/>
        <polyline class="st3" points="84.59 -112.77 84.23 -114.83 84.48 -114.75 84.06 -115.67 84.53 -115.53 84.04 -116.65 84.77 -116.6 84.11 -117.66 86.04 -118.42 84.27 -122.88 85.88 -127.55 85.26 -131.52 83.82 -133.24 82.05 -132.21 79.33 -129.1 84.27 -122.88 84.53 -122.25 84.4 -121.23 82.05 -119.95 81.54 -119.7 79.1 -121.37 79.33 -122.5 81.11 -124.56 80.86 -127.17 81.05 -125.23 79.1 -123.53 78.38 -122.32 78.6 -117.02 77.78 -116.35 77.78 -116.02 78.44 -115.46"/>
        <polyline class="st3" points="78.6 -117.02 79.17 -116.8 80.05 -118.93 82.05 -119.95 83.92 -119.88 85.23 -119.04 80.94 -117.42 81.37 -116.64 82.17 -115.17 81.11 -116.1 81.94 -114 81.26 -114.19 82.01 -112.77"/>
        <polyline class="st3" points="69.47 -112.77 69.83 -114.83 69.58 -114.75 70 -115.67 69.53 -115.53 70.02 -116.65 69.3 -116.6 69.95 -117.66 68.02 -118.42 69.79 -122.88 68.18 -127.55 68.8 -131.52 70.24 -133.24 72.01 -132.21 74.73 -129.1 69.79 -122.88 69.53 -122.25 69.66 -121.23 72.01 -119.95 72.52 -119.7 74.96 -121.37 74.73 -122.5 72.95 -124.56 73.2 -127.17 73.02 -125.23 74.96 -123.53 75.59 -121.98 75.4 -116.87"/>
        <polyline class="st3" points="78.6 -117.04 78.13 -117.84 77.54 -118.08 77.08 -118.08 76.5 -117.85 76.05 -117.02 75.4 -116.87 74.01 -118.93 72.01 -119.95 70.15 -119.88 68.83 -119.04 73.12 -117.42 72.7 -116.64 71.89 -115.17 72.95 -116.1 72.12 -114 72.8 -114.19 72.05 -112.77"/>
      </g>
    </g>
    <g>
      <text class="st22" transform="translate(.16 -82.79)"><tspan x="0" y="0">Revontulet</tspan></text>
      <g>
        <line class="st8" x1="105.73" y1="-74.81" x2="154.87" y2="-74.81"/>
        <line class="st5" x1=".72" y1="-74.81" x2="49.98" y2="-74.81"/>
      </g>
      <text class="st17" transform="translate(51.09 -72.76)"><tspan x="0" y="0">Intelligence</tspan></text>
    </g>
    <g>
      <text class="st22" transform="translate(.08 -39.98)"><tspan x="0" y="0">Revontulet</tspan></text>
      <g>
        <line class="st4" x1="105.44" y1="-32" x2="154.58" y2="-32"/>
        <line class="st6" x1=".43" y1="-32" x2="49.69" y2="-32"/>
      </g>
      <text class="st23" transform="translate(51.02 -29.96)"><tspan x="0" y="0">Intelligence</tspan></text>
      <g>
        <g class="st26">
          <polyline class="st3" points="72.77 -9.67 73.51 -8.95 73.29 -7.77 74.07 -8.83 73.53 -7.09 74.32 -8.56 73.85 -6.44 75.13 -7.95 74.53 -5.75 75.87 -7.51 75.61 -5.39 76.52 -7.1 76.79 -7.08 77.13 -4.64 77.41 -7.08"/>
          <polyline class="st3" points="76.12 -10.05 76.81 -9.33 76.81 -9 76.25 -8.41 73.19 -10.45"/>
          <polyline class="st3" points="70.31 -26.27 71.69 -21.43 71.35 -19.97 71.39 -19.04 69.72 -20.27 69.34 -21.49 68.3 -20.56"/>
          <polyline class="st3" points="71.69 -21.43 72.15 -20.99 73.46 -22.45 72.14 -25.18"/>
          <polyline class="st3" points="73.27 -20.2 73.02 -17.59 74.8 -15.53 75.03 -14.4 72.59 -12.73"/>
          <polyline class="st3" points="69.6 -15.28 69.73 -14.26 72.08 -12.99"/>
          <polyline class="st3" points="74.8 -15.53 73.85 -15.95 73.17 -15.72 72.44 -15.23 73.54 -14.32 74.57 -14.54 75.03 -14.4"/>
          <polyline class="st3" points="75.47 -9.9 75.66 -15.01 75.03 -16.56 73.09 -18.26"/>
          <polyline class="st3" points="72.13 -5.8 72.87 -7.22 72.19 -7.03 73.03 -9.13 71.96 -8.2 72.77 -9.67 73.19 -10.45 68.9 -12.07 70.22 -12.91 72.08 -12.99 74.08 -11.96 75.47 -9.9 76.12 -10.05 76.57 -10.88 77.15 -11.11 77.61 -11.11 78.2 -10.87 78.65 -10.05"/>
          <polyline class="st3" points="69.86 -15.91 74.8 -22.13 72.08 -25.24 70.31 -26.27 68.87 -24.55 68.25 -20.58 69.86 -15.91 68.09 -11.45 70.02 -10.69 69.37 -9.63 70.09 -9.68 69.6 -8.56 70.08 -8.71 69.65 -7.78 69.9 -7.86 69.54 -5.8"/>
          <polyline class="st3" points="77.37 -7.02 77.68 -7.1 79.17 -5.39 78.33 -7.51 79.67 -5.75 79.07 -7.95 80.35 -6.44 79.88 -8.56 80.67 -7.09 80.14 -8.83 80.91 -7.77 80.69 -8.95 81.44 -9.67"/>
          <line class="st3" x1="78.44" y1="-8.49" x2="81.01" y2="-10.45"/>
          <polyline class="st3" points="83.89 -26.27 82.51 -21.43 82.85 -19.97 82.81 -19.04 84.48 -20.27 84.86 -21.49 85.9 -20.56"/>
          <polyline class="st3" points="82.51 -21.43 82.06 -20.99 80.75 -22.45 82.06 -25.18"/>
          <polyline class="st3" points="80.93 -20.2 81.18 -17.59 79.4 -15.53 79.17 -14.4 81.61 -12.73"/>
          <polyline class="st3" points="84.6 -15.28 84.47 -14.26 82.12 -12.99"/>
          <polyline class="st3" points="79.4 -15.53 80.36 -15.95 81.01 -15.73 81.76 -15.23 80.66 -14.32 79.64 -14.54 79.17 -14.4"/>
          <polyline class="st3" points="78.67 -10.05 78.45 -15.36 79.17 -16.56 81.12 -18.26"/>
          <polyline class="st3" points="84.66 -5.8 84.3 -7.86 84.55 -7.78 84.13 -8.71 84.6 -8.56 84.11 -9.68 84.84 -9.63 84.18 -10.69 86.11 -11.45 84.34 -15.91 85.95 -20.58 85.33 -24.55 83.89 -26.27 82.12 -25.24 79.4 -22.13 84.34 -15.91"/>
          <polyline class="st3" points="78.67 -10.05 79.24 -9.83 80.12 -11.96 82.12 -12.99 83.99 -12.91 85.3 -12.07 81.01 -10.45 81.44 -9.67 82.24 -8.2 81.18 -9.13 82.01 -7.03 81.33 -7.22 82.08 -5.8"/>
          <path class="st3" d="M76.79-10.33"/>
          <path class="st3" d="M78.5-8.59"/>
          <path class="st3" d="M76.25-8.41"/>
          <path class="st3" d="M78.63-13.2"/>
          <polyline class="st3" points="75.6 -13.32 76.22 -13.99 77.07 -14.16 77.84 -14 78.54 -13.32"/>
          <line class="st3" x1="74.8" y1="-22.13" x2="79.44" y2="-22.13"/>
          <path class="st3" d="M76.22-8.44c.33.13.76.28,1.16.41l1.09-.46"/>
          <path class="st3" d="M75.46-9.83"/>
          <path class="st3" d="M77.33-7.37"/>
          <path class="st3" d="M77.33-11.02"/>
          <path class="st3" d="M78.67-10.07"/>
          <polyline class="st3" points="78.67 -10.05 77.85 -9.38 77.85 -9.05 78.41 -8.46"/>
        </g>
        <polyline class="st3" points="71.7 -21.38 72.07 -20.99 73.39 -22.45 72.07 -25.18 70.32 -26.21 71.7 -21.38 71.28 -19.97 71.32 -19.04 69.65 -20.27 69.27 -21.49 68.23 -20.56"/>
        <line class="st3" x1="79.33" y1="-22.13" x2="74.73" y2="-22.13"/>
        <polyline class="st3" points="85.83 -20.56 84.79 -21.49 84.41 -20.27 82.74 -19.04 82.78 -19.97 82.44 -21.43 83.72 -26.21 81.99 -25.18 80.68 -22.45 81.99 -20.99 82.44 -21.43"/>
        <polyline class="st3" points="74.73 -15.53 73.78 -15.95 73.09 -15.72 72.37 -15.23 73.47 -14.32 74.49 -14.54 74.96 -14.4 75.53 -13.32 76.15 -13.99 77 -14.16 77.77 -14 78.47 -13.32 78.56 -13.2 79.1 -14.4 79.57 -14.54 80.59 -14.32 81.69 -15.23 80.94 -15.73 80.29 -15.95 79.33 -15.53"/>
        <path class="st3" d="M78.6-10.07"/>
        <polyline class="st3" points="76.25 -8.41 77.34 -8.02 78.44 -8.49 80.94 -10.45 81.37 -9.67 80.62 -8.95 80.84 -7.77 80.06 -8.83 80.6 -7.09 79.81 -8.56 80.28 -6.44 79 -7.95 79.6 -5.75 78.26 -7.51 79.1 -5.39 77.61 -7.1 77.34 -7.08 77.06 -4.64 76.72 -7.08 76.45 -7.1 75.54 -5.39 75.8 -7.51 74.46 -5.75 75.06 -7.95 73.78 -6.44 74.25 -8.56 73.46 -7.09 74 -8.83 73.22 -7.77 73.44 -8.95 72.7 -9.67 73.12 -10.45 76.25 -8.41 76.74 -9 76.74 -9.33 76.05 -10.05"/>
        <polyline class="st3" points="84.59 -5.8 84.23 -7.86 84.48 -7.78 84.06 -8.71 84.53 -8.56 84.04 -9.68 84.77 -9.63 84.11 -10.69 86.04 -11.45 84.27 -15.91 85.88 -20.58 85.26 -24.55 83.82 -26.27 82.05 -25.24 79.33 -22.13 84.27 -15.91 84.53 -15.28 84.4 -14.26 82.05 -12.99 81.54 -12.73 79.1 -14.4 79.33 -15.53 81.11 -17.59 80.86 -20.2 81.05 -18.26 79.1 -16.56 78.38 -15.36 78.6 -10.05 77.78 -9.38 77.78 -9.05 78.44 -8.49"/>
        <polyline class="st3" points="78.6 -10.05 79.17 -9.83 80.05 -11.96 82.05 -12.99 83.92 -12.91 85.23 -12.07 80.94 -10.45 81.37 -9.67 82.17 -8.2 81.11 -9.13 81.94 -7.03 81.26 -7.22 82.01 -5.8"/>
        <polyline class="st3" points="69.47 -5.8 69.83 -7.86 69.58 -7.78 70 -8.71 69.53 -8.56 70.02 -9.68 69.3 -9.63 69.95 -10.69 68.02 -11.45 69.79 -15.91 68.18 -20.58 68.8 -24.55 70.24 -26.27 72.01 -25.24 74.73 -22.13 69.79 -15.91 69.53 -15.28 69.66 -14.26 72.01 -12.99 72.52 -12.73 74.96 -14.4 74.73 -15.53 72.95 -17.59 73.2 -20.2 73.02 -18.26 74.96 -16.56 75.59 -15.01 75.4 -9.9"/>
        <polyline class="st3" points="78.6 -10.07 78.13 -10.87 77.54 -11.11 77.08 -11.11 76.5 -10.88 76.05 -10.05 75.4 -9.9 74.01 -11.96 72.01 -12.99 70.15 -12.91 68.83 -12.07 73.12 -10.45 72.7 -9.67 71.89 -8.2 72.95 -9.13 72.12 -7.03 72.8 -7.22 72.05 -5.8"/>
      </g>
    </g>
    <g>
      <text class="st22" transform="translate(.16 24.18)"><tspan x="0" y="0">Revontulet</tspan></text>
      <g>
        <line class="st13" x1="105.73" y1="32.16" x2="154.87" y2="32.16"/>
        <line class="st2" x1=".72" y1="32.16" x2="49.98" y2="32.16"/>
      </g>
      <text class="st23" transform="translate(51.09 34.21)"><tspan x="0" y="0">Intelligence</tspan></text>
    </g>
  </g>
</svg>